#N canvas 403 23 1508 982 10;
#X obj 335 535 oscparse;
#X obj 335 504 netreceive -u -b;
#X msg 335 473 listen 51080;
#X obj 82 568 readsf~;
#X msg 129 543 1;
#X obj 78 448 bng 15 250 50 0 empty empty empty 17 7 0 10 -262144 -1
-1;
#X obj 128 475 t b b;
#X msg 169 543 0;
#X obj 335 566 route list;
#X obj 335 593 route azimuth elevation;
#X obj 335 443 loadbang;
#X obj 357 68 vsl 40 200 0 200 0 0 empty empty empty 0 -9 0 10 -261682
-1 -1 4378 1;
#X obj 357 319 send volume;
#X obj 357 292 / 127;
#X floatatom 436 319 5 0 0 0 - - -;
#X floatatom 261 390 5 0 0 0 - - -;
#X obj 80 70 vsl 40 200 1 9 0 0 empty empty empty 0 -9 0 10 -258113
-1 -1 0 1;
#X msg 80 628 activepartitions \$1;
#X text 132 63 All partitions active;
#X text 131 261 Only one partition active;
#X obj 80 282 send activepartitions;
#X obj 80 603 receive activepartitions;
#X obj 357 20 loadbang;
#X obj 78 425 loadbang;
#X msg 357 43 44;
#X floatatom 262 445 5 0 0 0 - - -;
#X floatatom 551 562 5 0 0 0 - - -;
#X msg 81 520 open cicerospeech.wav;
#X obj 501 162 vu 15 120 empty empty -1 -8 0 10 -66577 -1 1 0;
#X obj 493 90 snapshot~;
#X obj 605 0 tgl 15 0 empty empty empty 17 7 0 10 -262144 -1 -1 0 1
;
#X obj 495 53 metro 100;
#X msg 1143 317 \; pd dsp 0;
#N canvas 0 23 450 300 (subpatch) 0;
#X array arrayL 145156 float 0;
#X coords 0 1 145155 -1 250 200 1;
#X restore 891 474 graph;
#X obj 956 306 soundfiler;
#X floatatom 956 328 0 0 0 0 - - -;
#X text 1013 249 click here to load table;
#N canvas 0 23 450 300 (subpatch) 0;
#X array arrayR 145156 float 0;
#X coords 0 1 145155 -1 250 200 1 0 0;
#X restore 1234 474 graph;
#X obj 381 735 vas_binaural~ 256 fabian_dir256.txt;
#X obj 498 840 *~ 0.5;
#X obj 423 840 *~ 0.5;
#X obj 483 777 receive volume;
#X obj 434 889 dac~ 1 2;
#X floatatom 492 660 5 0 0 0 - - -;
#X floatatom 595 660 5 0 0 0 - - -;
#X msg 452 530 read fr_pos0.txt 2048;
#X msg 463 465 read fr_pos0_tail.txt 2048 3000;
#X msg 640 524 read fabian_dir256.txt 1024 0;
#X msg 694 414 set arrayL arrayR;
#X msg 956 272 read -resize MediumStage.aif arrayL arrayR \;;
#X obj 305 833 vu 8 80 empty empty -1 -8 0 10 -66577 -1 1 0;
#X obj 305 795 env~ 128;
#X obj 304 813 - 100;
#X connect 0 0 8 0;
#X connect 1 0 0 0;
#X connect 2 0 1 0;
#X connect 3 0 38 0;
#X connect 3 1 5 0;
#X connect 4 0 3 0;
#X connect 5 0 6 0;
#X connect 6 0 4 0;
#X connect 6 1 27 0;
#X connect 7 0 3 0;
#X connect 8 0 9 0;
#X connect 10 0 2 0;
#X connect 11 0 13 0;
#X connect 13 0 12 0;
#X connect 13 0 14 0;
#X connect 16 0 20 0;
#X connect 21 0 17 0;
#X connect 22 0 24 0;
#X connect 23 0 5 0;
#X connect 24 0 11 0;
#X connect 27 0 3 0;
#X connect 29 0 28 0;
#X connect 30 0 31 0;
#X connect 31 0 29 0;
#X connect 34 0 35 0;
#X connect 38 0 40 0;
#X connect 38 0 51 0;
#X connect 38 1 39 0;
#X connect 39 0 42 1;
#X connect 40 0 42 0;
#X connect 41 0 40 1;
#X connect 41 0 39 1;
#X connect 43 0 38 1;
#X connect 44 0 38 2;
#X connect 45 0 38 0;
#X connect 46 0 38 0;
#X connect 47 0 38 0;
#X connect 48 0 38 0;
#X connect 49 0 34 0;
#X connect 51 0 52 0;
#X connect 52 0 50 0;
