#N canvas 230 63 1257 629 10;
#X obj 372 266 oscparse;
#X obj 372 235 netreceive -u -b;
#X obj 372 297 route list;
#X obj 372 174 loadbang;
#X msg 372 204 listen 51004;
#X obj 372 334 route uOSC;
#X obj 374 411 route source1;
#X obj 495 407 route source2;
#X obj 615 405 route source3;
#X obj 442 537 print;
#X connect 0 0 2 0;
#X connect 1 0 0 0;
#X connect 2 0 5 0;
#X connect 3 0 4 0;
#X connect 4 0 1 0;
#X connect 5 0 6 0;
#X connect 5 0 7 0;
#X connect 5 0 8 0;
#X connect 6 0 9 0;
