#N canvas 227 233 1388 638 12;
#X msg 937 105 \; pd dsp 0;
#N canvas 0 23 450 300 (subpatch) 0;
#X array arrayL 3.244e+06 float 0;
#X coords 0 1 3.244e+06 -1 250 200 1;
#X restore 685 262 graph;
#X floatatom 62 442 0 0 0 0 - - -;
#X msg 62 186 set array99;
#X text 144 186 "set" message permits you to switch between arrays
;
#X text 179 316 creation argument initializes array name;
#X obj 92 101 tabplay~;
#X text 159 102 play a table as a sample (non-transposing);
#X obj 62 316 tabplay~ array99;
#X obj 750 94 soundfiler;
#X floatatom 750 116 0 0 0 0 - - -;
#X obj 62 416 env~ 16384;
#X obj 138 462 dac~ 1;
#X obj 138 423 *~;
#X obj 151 404 line~;
#X msg 151 363 0.1 100;
#X msg 167 384 0 100;
#X text 213 364 on;
#X text 208 383 off;
#X text 199 401 envelope;
#X text 199 412 generator;
#X text 152 348 amplitude controls:;
#X text 182 464 audio output;
#X obj 138 442 hip~ 5;
#X msg 82 250 0 44100;
#X msg 83 229 44100;
#X msg 82 209 bang;
#X text 80 131 The tabplay~ object plays a sample \, or part of one
\, with no transposition or interpolation. It is cheaper than tabread4~
and there are none of tabread4~'s interpolation artifacts.;
#X text 807 37 click here to load table;
#X text 136 207 "bang" or 0 plays whole sample;
#X text 138 228 play starting at 44100th sample;
#X text 149 248 play starting at beginning for 44100 samples;
#X msg 81 270 44100 1000;
#X text 159 269 play from 44100 through 45099 (1000 samples);
#X msg 81 292 stop;
#X text 120 291 stop playing (outputs zeros when stopped);
#N canvas 0 23 450 300 (subpatch) 0;
#X array arrayR 3.244e+06 float 0;
#X coords 0 1 3.244e+06 -1 250 200 1 0 0;
#X restore 1028 262 graph;
#X msg 750 60 read -resize Habanera.wav arrayL arrayR \; pd dsp 1 \;
;
#X connect 3 0 8 0;
#X connect 8 0 11 0;
#X connect 8 0 13 0;
#X connect 9 0 10 0;
#X connect 11 0 2 0;
#X connect 13 0 23 0;
#X connect 14 0 13 1;
#X connect 15 0 14 0;
#X connect 16 0 14 0;
#X connect 23 0 12 0;
#X connect 24 0 8 0;
#X connect 25 0 8 0;
#X connect 26 0 8 0;
#X connect 32 0 8 0;
#X connect 34 0 8 0;
#X connect 37 0 9 0;
