#N canvas 665 411 486 147 10;
#X obj 22 57 vas_binaural~ 256 fabian_dir256.txt;
#X obj 22 95 dac~ 1 2;
#X floatatom 125 29 5 0 0 0 - azimuth -;
#X floatatom 229 32 5 0 0 0 - elevation -;
#X obj 22 21 adc~ 1;
#X msg 285 47 \; pd dsp 1;
#X obj 285 23 loadbang;
#X connect 0 0 1 0;
#X connect 0 1 1 1;
#X connect 2 0 0 1;
#X connect 3 0 0 2;
#X connect 4 0 0 0;
#X connect 6 0 5 0;
