#N canvas 329 127 1482 891 12;
#X msg 270 359 pd~ stop;
#X obj 36 534 print x;
#X obj 151 536 dac~;
#X obj 38 423 pd~ -ninsig 1 -noutsig 2 -fifo 20;
#X msg 65 360 azimuth \$1;
#X msg 156 359 elevation \$1;
#X floatatom 66 318 5 0 0 0 - - -;
#X floatatom 157 318 5 0 0 0 - - -;
#X obj 39 250 readsf~;
#X msg 86 225 1;
#X msg 126 225 0;
#X msg 38 202 open cicerospeech.wav;
#X obj 220 573 vu 8 80 empty empty -1 -8 0 10 -66577 -1 1 0;
#X obj 220 535 env~ 128;
#X obj 219 553 - 100;
#X msg 151 257 pd~ start vas_binaural_subprocess.pd;
#X obj 85 157 t b b b;
#X msg 588 282 pd~ stop;
#X obj 464 536 print x;
#X obj 579 538 dac~;
#X obj 466 425 pd~ -ninsig 1 -noutsig 2 -fifo 20;
#X msg 493 362 azimuth \$1;
#X msg 584 361 elevation \$1;
#X floatatom 494 320 5 0 0 0 - - -;
#X floatatom 585 320 5 0 0 0 - - -;
#X obj 467 252 readsf~;
#X msg 514 227 1;
#X msg 554 227 0;
#X msg 466 204 open cicerospeech.wav;
#X obj 648 575 vu 8 80 empty empty -1 -8 0 10 -66577 -1 1 0;
#X obj 648 537 env~ 128;
#X obj 647 555 - 100;
#X msg 579 259 pd~ start vas_binaural_subprocess.pd;
#X obj 513 159 t b b b;
#X obj 41 44 bng 15 250 50 0 empty empty empty 17 7 0 10 -262144 -1
-1;
#X obj 513 124 r start;
#X obj 85 123 r start;
#X msg 912 59 \; pd dsp 1;
#X obj 912 26 loadbang;
#X obj 41 74 send start;
#X obj 211 44 bng 15 250 50 0 empty empty empty 17 7 0 10 -262144 -1
-1;
#X obj 211 74 send stop;
#X obj 270 327 r stop;
#X msg 699 358 pd~ stop;
#X obj 699 326 r stop;
#X msg 41 12 start subprocesses;
#X msg 211 11 stop subprocesses;
#X msg 320 61 \; pd dsp 0;
#X text 502 33 Have a look at vas_binaural_subprocess.pd;
#X connect 0 0 3 0;
#X connect 3 0 1 0;
#X connect 3 1 2 0;
#X connect 3 1 13 0;
#X connect 3 2 2 1;
#X connect 4 0 3 0;
#X connect 5 0 3 0;
#X connect 6 0 4 0;
#X connect 7 0 5 0;
#X connect 8 0 3 0;
#X connect 9 0 8 0;
#X connect 10 0 8 0;
#X connect 11 0 8 0;
#X connect 13 0 14 0;
#X connect 14 0 12 0;
#X connect 15 0 3 0;
#X connect 16 0 9 0;
#X connect 16 1 11 0;
#X connect 16 2 15 0;
#X connect 17 0 20 0;
#X connect 20 0 18 0;
#X connect 20 1 19 0;
#X connect 20 1 30 0;
#X connect 20 2 19 1;
#X connect 21 0 20 0;
#X connect 22 0 20 0;
#X connect 23 0 21 0;
#X connect 24 0 22 0;
#X connect 25 0 20 0;
#X connect 26 0 25 0;
#X connect 27 0 25 0;
#X connect 28 0 25 0;
#X connect 30 0 31 0;
#X connect 31 0 29 0;
#X connect 32 0 20 0;
#X connect 33 0 26 0;
#X connect 33 1 28 0;
#X connect 33 2 32 0;
#X connect 34 0 39 0;
#X connect 35 0 33 0;
#X connect 36 0 16 0;
#X connect 38 0 37 0;
#X connect 40 0 41 0;
#X connect 42 0 0 0;
#X connect 43 0 20 0;
#X connect 44 0 43 0;
#X connect 45 0 34 0;
#X connect 46 0 40 0;
