#N canvas 659 60 682 351 10;
#X obj 98 664 rwa_binauralrir~ 256 fr_pos0.txt;
#X obj 352 539 oscparse;
#X obj 352 508 netreceive -u -b;
#X msg 352 477 listen 51080;
#X obj 98 580 readsf~;
#X msg 146 547 1;
#X obj 95 452 bng 15 250 50 0 empty empty empty 17 7 0 10 -262144 -1
-1;
#X obj 145 479 t b b;
#X msg 186 547 0;
#X obj 352 570 route list;
#X obj 352 597 route azimuth elevation;
#X obj 352 447 loadbang;
#X msg 98 524 open cicerospeech.wav;
#X obj 287 749 *~ 0.5;
#X obj 98 758 *~ 0.5;
#X obj 98 869 dac~ 1 2;
#X obj 374 72 vsl 40 200 0 127 0 0 empty empty empty 0 -9 0 10 -261682
-1 -1 6894 1;
#X obj 374 323 send volume;
#X obj 374 296 / 127;
#X obj 158 695 receive volume;
#X obj 307 664 rwa_reverb~ 256 fr_pos0_tail.txt;
#X floatatom 453 323 5 0 0 0 - - -;
#X floatatom 263 524 5 0 0 0 - - -;
#X obj 97 74 vsl 40 200 1 26 0 0 empty empty empty 0 -9 0 10 -258113
-1 -1 6200 1;
#X msg 97 632 activepartitions \$1;
#X text 149 67 All partitions active;
#X text 148 265 Only one partition active;
#X obj 97 286 send activepartitions;
#X obj 97 607 receive activepartitions;
#X obj 374 24 loadbang;
#X obj 95 429 loadbang;
#X msg 374 47 44;
#X obj 98 815 rwa_hpcomp~ 256 dt770.txt;
#X connect 0 0 14 0;
#X connect 0 1 13 0;
#X connect 1 0 9 0;
#X connect 2 0 1 0;
#X connect 3 0 2 0;
#X connect 4 0 0 0;
#X connect 4 0 20 0;
#X connect 4 1 6 0;
#X connect 5 0 4 0;
#X connect 6 0 7 0;
#X connect 7 0 5 0;
#X connect 7 1 12 0;
#X connect 8 0 4 0;
#X connect 9 0 10 0;
#X connect 10 0 0 1;
#X connect 11 0 3 0;
#X connect 12 0 4 0;
#X connect 13 0 32 1;
#X connect 14 0 32 0;
#X connect 16 0 18 0;
#X connect 18 0 17 0;
#X connect 18 0 21 0;
#X connect 19 0 14 1;
#X connect 19 0 13 1;
#X connect 20 0 14 0;
#X connect 20 1 13 0;
#X connect 22 0 0 1;
#X connect 23 0 27 0;
#X connect 24 0 0 0;
#X connect 28 0 24 0;
#X connect 29 0 31 0;
#X connect 30 0 6 0;
#X connect 31 0 16 0;
#X connect 32 0 15 0;
#X connect 32 1 15 1;
