#N canvas 659 60 990 979 10;
#X obj 335 535 oscparse;
#X obj 335 504 netreceive -u -b;
#X msg 335 473 listen 51080;
#X obj 82 568 readsf~;
#X msg 129 543 1;
#X obj 78 448 bng 15 250 50 0 empty empty empty 17 7 0 10 -262144 -1
-1;
#X obj 128 475 t b b;
#X msg 169 543 0;
#X obj 335 566 route list;
#X obj 335 593 route azimuth elevation;
#X obj 335 443 loadbang;
#X obj 161 746 *~ 0.5;
#X obj 81 754 *~ 0.5;
#X obj 81 865 dac~ 1 2;
#X obj 357 68 vsl 40 200 0 200 0 0 empty empty empty 0 -9 0 10 -261682
-1 -1 4378 1;
#X obj 357 319 send volume;
#X obj 357 292 / 127;
#X obj 141 691 receive volume;
#X floatatom 436 319 5 0 0 0 - - -;
#X floatatom 261 390 5 0 0 0 - - -;
#X obj 80 70 vsl 40 200 1 9 0 0 empty empty empty 0 -9 0 10 -258113
-1 -1 0 1;
#X msg 80 628 activepartitions \$1;
#X text 132 63 All partitions active;
#X text 131 261 Only one partition active;
#X obj 80 282 send activepartitions;
#X obj 80 603 receive activepartitions;
#X obj 357 20 loadbang;
#X obj 78 425 loadbang;
#X msg 357 43 44;
#X floatatom 262 445 5 0 0 0 - - -;
#X floatatom 551 562 5 0 0 0 - - -;
#X msg 81 520 open cicerospeech.wav;
#X obj 742 465 vu 15 120 empty empty -1 -8 0 10 -66577 -1 1 0;
#X obj 734 393 snapshot~;
#X obj 846 303 tgl 15 0 empty empty empty 17 7 0 10 -262144 -1 -1 0
1;
#X obj 736 356 metro 100;
#X obj 86 660 rwa_binauralrir~ 1024 fr_pos0.txt;
#X msg 329 397 read fabian_dir256.txt 1024;
#X msg 452 530 read fr_pos0.txt 1024;
#X connect 0 0 8 0;
#X connect 1 0 0 0;
#X connect 2 0 1 0;
#X connect 3 0 36 0;
#X connect 3 1 5 0;
#X connect 4 0 3 0;
#X connect 5 0 6 0;
#X connect 6 0 4 0;
#X connect 6 1 31 0;
#X connect 7 0 3 0;
#X connect 8 0 9 0;
#X connect 10 0 2 0;
#X connect 11 0 13 1;
#X connect 12 0 13 0;
#X connect 14 0 16 0;
#X connect 16 0 15 0;
#X connect 16 0 18 0;
#X connect 17 0 12 1;
#X connect 17 0 11 1;
#X connect 19 0 36 1;
#X connect 20 0 24 0;
#X connect 25 0 21 0;
#X connect 26 0 28 0;
#X connect 27 0 5 0;
#X connect 28 0 14 0;
#X connect 29 0 36 2;
#X connect 31 0 3 0;
#X connect 33 0 32 0;
#X connect 34 0 35 0;
#X connect 35 0 33 0;
#X connect 36 0 12 0;
#X connect 36 1 11 0;
#X connect 37 0 36 0;
#X connect 38 0 36 0;
