#N canvas 701 89 583 411 10;
#X obj 352 539 oscparse;
#X obj 352 508 netreceive -u -b;
#X msg 352 477 listen 51080;
#X obj 98 580 readsf~;
#X msg 146 547 1;
#X obj 95 452 bng 15 250 50 0 empty empty empty 17 7 0 10 -262144 -1
-1;
#X obj 145 479 t b b;
#X msg 186 547 0;
#X obj 352 570 route list;
#X obj 352 597 route azimuth elevation;
#X obj 352 447 loadbang;
#X msg 98 524 open cicerospeech.wav;
#X obj 287 749 *~ 0.5;
#X obj 98 758 *~ 0.5;
#X obj 98 869 dac~ 1 2;
#X obj 374 72 vsl 40 200 0 127 0 0 empty empty empty 0 -9 0 10 -261682
-1 -1 19900 1;
#X obj 374 323 send volume;
#X obj 374 296 / 127;
#X obj 158 695 receive volume;
#X floatatom 453 323 5 0 0 0 - - -;
#X floatatom 263 524 5 0 0 0 - - -;
#X obj 97 70 vsl 40 200 1 92 0 0 empty empty empty 0 -9 0 10 -258113
-1 -1 0 1;
#X msg 97 632 activepartitions \$1;
#X text 149 67 All partitions active;
#X text 148 265 Only one partition active;
#X obj 97 286 send activepartitions;
#X obj 97 607 receive activepartitions;
#X obj 374 24 loadbang;
#X obj 95 429 loadbang;
#X msg 374 47 127;
#X obj 98 663 vas_binaural~ 256 VSEb_S00_R02.txt;
#X obj 339 662 vas_reverb~ 256 VSEb_S00_R02_tail.txt;
#X obj 98 815 vas_hpcomp~ 256 dt770.txt;
#X connect 0 0 8 0;
#X connect 1 0 0 0;
#X connect 2 0 1 0;
#X connect 3 0 30 0;
#X connect 3 0 31 0;
#X connect 3 1 5 0;
#X connect 4 0 3 0;
#X connect 5 0 6 0;
#X connect 6 0 4 0;
#X connect 6 1 11 0;
#X connect 7 0 3 0;
#X connect 8 0 9 0;
#X connect 9 0 30 1;
#X connect 10 0 2 0;
#X connect 11 0 3 0;
#X connect 12 0 32 1;
#X connect 13 0 32 0;
#X connect 15 0 17 0;
#X connect 17 0 16 0;
#X connect 17 0 19 0;
#X connect 18 0 13 1;
#X connect 18 0 12 1;
#X connect 20 0 30 1;
#X connect 21 0 25 0;
#X connect 22 0 30 0;
#X connect 26 0 22 0;
#X connect 27 0 29 0;
#X connect 28 0 5 0;
#X connect 29 0 15 0;
#X connect 30 0 13 0;
#X connect 30 1 12 0;
#X connect 31 0 13 0;
#X connect 31 1 12 0;
#X connect 32 0 14 0;
#X connect 32 1 14 1;
