#N canvas 174 108 1208 995 12;
#X obj 40 27 adc~ 1;
#X obj 195 472 *~ 0.5;
#X obj 44 470 *~ 0.5;
#X obj 46 241 r~ source;
#X floatatom 63 193 5 0 0 0 - - -;
#X floatatom 107 217 5 0 0 0 - - -;
#X obj 11 363 *~;
#X obj 44 437 *~;
#X obj 83 432 receive vol1, f 7;
#X obj 63 163 receive drywet1;
#X obj 207 362 *~;
#X obj 195 444 *~;
#X floatatom 213 192 5 0 0 0 - - -;
#X floatatom 259 217 5 0 0 0 - - -;
#X obj 213 164 receive drywet2;
#X obj 234 432 receive vol2, f 7;
#X obj 44 496 dac~ 1 2, f 22;
#X obj 44 362 vas_reverb~ 256, f 22;
#X obj 86 297 vas_reverb~ 4096;
#X obj 40 52 s~ source;
#N canvas 817 114 677 891 loadIRs 1;
#N canvas 0 23 450 300 (subpatch) 0;
#X array arrayL1 145156 float 0;
#X coords 0 1 145155 -1 200 80 1 0 0;
#X restore 26 289 graph;
#X obj 339 235 soundfiler;
#X floatatom 339 257 0 0 0 0 - - -;
#N canvas 0 23 450 300 (subpatch) 0;
#X array arrayR1 145156 float 0;
#X coords 0 1 145155 -1 200 80 1 0 0;
#X restore 241 289 graph;
#X obj 22 16 loadbang;
#X obj 22 42 t b b;
#N canvas 0 23 450 300 (subpatch) 0;
#X array arrayL2 145156 float 0;
#X coords 0 1 145155 -1 200 80 1 0 0;
#X restore 29 406 graph;
#N canvas 0 23 450 300 (subpatch) 0;
#X array arrayR2 145156 float 0;
#X coords 0 1 145155 -1 200 80 1 0 0;
#X restore 244 406 graph;
#N canvas 0 23 450 300 (subpatch) 0;
#X array arrayL3 145156 float 0;
#X coords 0 1 145155 -1 200 80 1 0 0;
#X restore 33 529 graph;
#N canvas 0 23 450 300 (subpatch) 0;
#X array arrayR3 145156 float 0;
#X coords 0 1 145155 -1 200 80 1 0 0;
#X restore 248 529 graph;
#N canvas 0 23 450 300 (subpatch) 0;
#X array arrayL4 145156 float 0;
#X coords 0 1 145155 -1 200 80 1 0 0;
#X restore 36 656 graph;
#N canvas 0 23 450 300 (subpatch) 0;
#X array arrayR4 145156 float 0;
#X coords 0 1 145155 -1 200 80 1 0 0;
#X restore 251 656 graph;
#N canvas 0 23 450 300 (subpatch) 0;
#X array arrayL5 145156 float 0;
#X coords 0 1 145155 -1 200 80 1 0 0;
#X restore 38 778 graph;
#N canvas 0 23 450 300 (subpatch) 0;
#X array arrayR5 145156 float 0;
#X coords 0 1 145155 -1 200 80 1 0 0;
#X restore 253 778 graph;
#X msg 338 98 read -resize MediumStage.aif arrayL1 arrayR1 \;;
#X obj 54 69 t b b b b b, f 41;
#X msg 267 123 read -resize MediumStage.aif arrayL2 arrayR2 \;;
#X msg 196 148 read -resize MediumStage.aif arrayL3 arrayR3 \;;
#X msg 125 172 read -resize MediumStage.aif arrayL4 arrayR4 \;;
#X msg 54 196 read -resize MediumStage.aif arrayL5 arrayR5 \;;
#X obj 22 105 s setIRs;
#X connect 1 0 2 0;
#X connect 4 0 5 0;
#X connect 5 0 20 0;
#X connect 5 1 15 0;
#X connect 14 0 1 0;
#X connect 15 0 19 0;
#X connect 15 1 18 0;
#X connect 15 2 17 0;
#X connect 15 3 16 0;
#X connect 15 4 14 0;
#X connect 16 0 1 0;
#X connect 17 0 1 0;
#X connect 18 0 1 0;
#X connect 19 0 1 0;
#X restore 134 53 pd loadIRs;
#X obj 126 240 r setIRs;
#X obj 107 191 expr 1 - $f1;
#X obj 259 191 expr 1 - $f1;
#N canvas 0 23 1645 736 gui 0;
#X obj 20 30 vsl 40 110 0 200 0 0 empty empty empty 0 -9 0 10 -261682
-1 -1 0 1;
#X obj 20 147 / 127;
#X obj 23 200 hsl 128 15 0 127 0 0 empty empty empty -2 -8 0 10 -262144
-1 -1 0 1;
#X obj 180 199 hsl 128 15 0 127 0 0 empty empty empty -2 -8 0 10 -262144
-1 -1 0 1;
#X obj 20 174 send vol1;
#X obj 177 29 vsl 40 110 0 200 0 0 empty empty empty 0 -9 0 10 -261682
-1 -1 0 1;
#X obj 177 146 / 127;
#X obj 177 173 send vol2;
#X obj 20 245 send drywet1;
#X obj 177 246 send drywet2;
#X obj 20 220 / 127;
#X obj 177 221 / 127;
#X connect 0 0 1 0;
#X connect 1 0 4 0;
#X connect 2 0 10 0;
#X connect 3 0 11 0;
#X connect 5 0 6 0;
#X connect 6 0 7 0;
#X connect 10 0 8 0;
#X connect 11 0 9 0;
#X restore 235 54 pd gui;
#X text 21 139 /ospw/0/1/hslicder/drywet1/0.5;
#X text 184 116 /ospw/1/1/hslider/drywet2/0.5;
#X text 61 411 /ospw/0/0/vslider/vol1/0.5;
#X text 159 389 /ospw/1/0/vslider/vol2/0.5;
#N canvas 771 168 884 443 routeOSC 0;
#X obj 12 44 oscparse;
#X obj 12 17 netreceive -u -b 57120;
#X obj 12 71 route list;
#X obj 12 97 route ospw;
#X obj 12 153 route vol1;
#X obj 93 153 route vol2;
#X obj 173 153 route vol3;
#X obj 254 153 route vol4;
#X obj 334 153 route vol5;
#X obj 415 153 route vol6;
#X obj 495 153 route vol7;
#X obj 577 153 route vol8;
#X obj 657 153 route vol9;
#X obj 739 153 route vol10;
#X obj 12 184 s vol1;
#X obj 93 184 s vol2;
#X obj 173 184 s vol3;
#X obj 254 183 s vol4;
#X obj 334 183 s vol5;
#X obj 415 183 s vol6;
#X obj 495 182 s vol7;
#X obj 577 183 s vol8;
#X obj 657 182 s vol9;
#X obj 739 183 s vol10;
#X obj 15 245 route drywet1;
#X obj 97 333 route drywet2;
#X obj 15 274 s drywet1;
#X obj 97 364 s drywet2;
#X obj 174 246 route drywet3;
#X obj 174 277 s drywet3;
#X obj 256 335 route drywet4;
#X obj 256 365 s drywet4;
#X obj 337 248 route drywet5;
#X obj 337 278 s drywet5;
#X obj 418 338 route drywet6;
#X obj 418 368 s drywet6;
#X obj 497 246 route drywet7;
#X obj 497 275 s drywet7;
#X obj 581 339 route drywet8;
#X obj 581 369 s drywet8;
#X obj 660 245 route drywet9;
#X obj 660 274 s drywet9;
#X obj 743 338 route drywet10;
#X obj 743 368 s drywet10;
#X connect 0 0 2 0;
#X connect 1 0 0 0;
#X connect 2 0 3 0;
#X connect 3 0 4 0;
#X connect 3 0 5 0;
#X connect 3 0 6 0;
#X connect 3 0 7 0;
#X connect 3 0 8 0;
#X connect 3 0 9 0;
#X connect 3 0 10 0;
#X connect 3 0 11 0;
#X connect 3 0 12 0;
#X connect 3 0 13 0;
#X connect 3 0 24 0;
#X connect 3 0 28 0;
#X connect 3 0 25 0;
#X connect 3 0 32 0;
#X connect 3 0 30 0;
#X connect 3 0 36 0;
#X connect 3 0 34 0;
#X connect 3 0 40 0;
#X connect 3 0 38 0;
#X connect 3 0 42 0;
#X connect 4 0 14 0;
#X connect 5 0 15 0;
#X connect 6 0 16 0;
#X connect 7 0 17 0;
#X connect 8 0 18 0;
#X connect 9 0 19 0;
#X connect 10 0 20 0;
#X connect 11 0 21 0;
#X connect 12 0 22 0;
#X connect 13 0 23 0;
#X connect 24 0 26 0;
#X connect 25 0 27 0;
#X connect 28 0 29 0;
#X connect 30 0 31 0;
#X connect 32 0 33 0;
#X connect 34 0 35 0;
#X connect 36 0 37 0;
#X connect 38 0 39 0;
#X connect 40 0 41 0;
#X connect 42 0 43 0;
#X restore 306 54 pd routeOSC;
#X obj 590 470 *~ 0.5;
#X obj 439 468 *~ 0.5;
#X obj 441 239 r~ source;
#X floatatom 458 191 5 0 0 0 - - -;
#X floatatom 502 215 5 0 0 0 - - -;
#X obj 406 361 *~;
#X obj 439 435 *~;
#X obj 602 360 *~;
#X obj 590 442 *~;
#X floatatom 608 190 5 0 0 0 - - -;
#X floatatom 654 215 5 0 0 0 - - -;
#X obj 439 360 vas_reverb~ 256, f 22;
#X obj 481 295 vas_reverb~ 4096;
#X obj 521 238 r setIRs;
#X obj 502 189 expr 1 - $f1;
#X obj 654 189 expr 1 - $f1;
#X obj 439 494 dac~ 3 4, f 22;
#X obj 458 161 receive drywet3;
#X obj 608 162 receive drywet4;
#X obj 478 430 receive vol3, f 7;
#X obj 629 430 receive vol4, f 7;
#X obj 972 468 *~ 0.5;
#X obj 821 466 *~ 0.5;
#X obj 823 237 r~ source;
#X floatatom 840 189 5 0 0 0 - - -;
#X floatatom 884 213 5 0 0 0 - - -;
#X obj 788 359 *~;
#X obj 821 433 *~;
#X obj 984 358 *~;
#X obj 972 440 *~;
#X floatatom 990 188 5 0 0 0 - - -;
#X floatatom 1036 213 5 0 0 0 - - -;
#X obj 821 358 vas_reverb~ 256, f 22;
#X obj 863 293 vas_reverb~ 4096;
#X obj 903 236 r setIRs;
#X obj 884 187 expr 1 - $f1;
#X obj 1036 187 expr 1 - $f1;
#X obj 821 492 dac~ 5 6, f 22;
#X obj 860 428 receive vol5, f 7;
#X obj 1011 428 receive vol6, f 7;
#X text 456 409 /ospw/2/0/vslider/vol3/0.5;
#X text 554 387 /ospw/3/0/vslider/vol4/0.5;
#X text 838 407 /ospw/4/0/vslider/vol5/0.5;
#X text 936 385 /ospw/5/0/vslider/vol6/0.5;
#X text 416 137 /ospw/2/1/hslicder/drywet3/0.5;
#X text 579 114 /ospw/3/1/hslider/drywet4/0.5;
#X obj 840 159 receive drywet5;
#X obj 990 160 receive drywet6;
#X text 798 135 /ospw/4/1/hslicder/drywet5/0.5;
#X text 961 112 /ospw/5/1/hslider/drywet6/0.5;
#X obj 320 897 *~ 0.5;
#X obj 169 895 *~ 0.5;
#X obj 171 666 r~ source;
#X floatatom 188 618 5 0 0 0 - - -;
#X floatatom 232 642 5 0 0 0 - - -;
#X obj 136 788 *~;
#X obj 169 862 *~;
#X obj 332 787 *~;
#X obj 320 869 *~;
#X floatatom 338 617 5 0 0 0 - - -;
#X floatatom 384 642 5 0 0 0 - - -;
#X obj 169 787 vas_reverb~ 256, f 22;
#X obj 211 722 vas_reverb~ 4096;
#X obj 251 665 r setIRs;
#X obj 232 616 expr 1 - $f1;
#X obj 384 616 expr 1 - $f1;
#X text 146 564 /ospw/6/1/hslicder/drywet7/0.5;
#X text 309 541 /ospw/7/1/hslider/drywet8/0.5;
#X obj 188 588 receive drywet7;
#X obj 338 589 receive drywet8;
#X text 186 836 /ospw/6/0/vslider/vol7/0.5;
#X text 283 814 /ospw/7/0/vslider/vol8/0.5;
#X obj 208 857 receive vol7, f 7;
#X obj 359 857 receive vol8, f 7;
#X obj 736 896 *~ 0.5;
#X obj 585 894 *~ 0.5;
#X obj 587 665 r~ source;
#X floatatom 604 617 5 0 0 0 - - -;
#X floatatom 648 641 5 0 0 0 - - -;
#X obj 552 787 *~;
#X obj 585 861 *~;
#X obj 748 786 *~;
#X obj 736 868 *~;
#X floatatom 754 616 5 0 0 0 - - -;
#X floatatom 800 641 5 0 0 0 - - -;
#X obj 585 786 vas_reverb~ 256, f 22;
#X obj 627 721 vas_reverb~ 4096;
#X obj 667 664 r setIRs;
#X obj 648 615 expr 1 - $f1;
#X obj 800 615 expr 1 - $f1;
#X text 562 563 /ospw/8/1/hslicder/drywet9/0.5;
#X text 725 540 /ospw/9/1/hslider/drywet10/0.5;
#X obj 604 587 receive drywet9;
#X obj 754 588 receive drywet10;
#X text 602 835 /ospw/8/0/vslider/vol9/0.5;
#X text 699 813 /ospw/9/0/vslider/vol10/0.5;
#X obj 624 856 receive vol9, f 7;
#X obj 775 856 receive vol10, f 7;
#X obj 169 921 dac~ 7 8, f 22;
#X obj 585 920 dac~ 9 10, f 22;
#X msg 86 268 set arrayL1 arrayR1 4096 3840 0;
#X msg 43 333 set arrayL1 arrayR1 256 0 3840;
#X msg 481 266 set arrayL2 arrayR2 4096 3840 0;
#X msg 438 331 set arrayL2 arrayR2 256 0 3840;
#X msg 863 264 set arrayL3 arrayR3 4096 3840 0;
#X msg 820 329 set arrayL3 arrayR3 256 0 3840;
#X msg 211 693 set arrayL4 arrayR4 4096 3840 0;
#X msg 168 758 set arrayL4 arrayR4 256 0 3840;
#X msg 627 692 set arrayL5 arrayR5 4096 3840 0;
#X msg 584 757 set arrayL5 arrayR5 256 0 3840;
#X connect 0 0 19 0;
#X connect 1 0 16 1;
#X connect 2 0 16 0;
#X connect 3 0 6 0;
#X connect 3 0 10 0;
#X connect 3 0 17 0;
#X connect 3 0 18 0;
#X connect 4 0 22 0;
#X connect 4 0 7 1;
#X connect 5 0 6 1;
#X connect 6 0 2 0;
#X connect 7 0 2 0;
#X connect 8 0 2 1;
#X connect 9 0 4 0;
#X connect 10 0 1 0;
#X connect 11 0 1 0;
#X connect 12 0 23 0;
#X connect 12 0 11 1;
#X connect 13 0 10 1;
#X connect 14 0 12 0;
#X connect 15 0 1 1;
#X connect 17 0 7 0;
#X connect 17 1 11 0;
#X connect 18 0 7 0;
#X connect 18 1 11 0;
#X connect 21 0 130 0;
#X connect 21 0 131 0;
#X connect 22 0 5 0;
#X connect 23 0 13 0;
#X connect 30 0 46 1;
#X connect 31 0 46 0;
#X connect 32 0 35 0;
#X connect 32 0 37 0;
#X connect 32 0 41 0;
#X connect 32 0 42 0;
#X connect 33 0 44 0;
#X connect 33 0 36 1;
#X connect 34 0 35 1;
#X connect 35 0 31 0;
#X connect 36 0 31 0;
#X connect 37 0 30 0;
#X connect 38 0 30 0;
#X connect 39 0 45 0;
#X connect 39 0 38 1;
#X connect 40 0 37 1;
#X connect 41 0 36 0;
#X connect 41 1 38 0;
#X connect 42 0 36 0;
#X connect 42 1 38 0;
#X connect 43 0 132 0;
#X connect 43 0 133 0;
#X connect 44 0 34 0;
#X connect 45 0 40 0;
#X connect 47 0 33 0;
#X connect 48 0 39 0;
#X connect 49 0 31 1;
#X connect 50 0 30 1;
#X connect 51 0 67 1;
#X connect 52 0 67 0;
#X connect 53 0 56 0;
#X connect 53 0 58 0;
#X connect 53 0 62 0;
#X connect 53 0 63 0;
#X connect 54 0 65 0;
#X connect 54 0 57 1;
#X connect 55 0 56 1;
#X connect 56 0 52 0;
#X connect 57 0 52 0;
#X connect 58 0 51 0;
#X connect 59 0 51 0;
#X connect 60 0 66 0;
#X connect 60 0 59 1;
#X connect 61 0 58 1;
#X connect 62 0 57 0;
#X connect 62 1 59 0;
#X connect 63 0 57 0;
#X connect 63 1 59 0;
#X connect 64 0 134 0;
#X connect 64 0 135 0;
#X connect 65 0 55 0;
#X connect 66 0 61 0;
#X connect 68 0 52 1;
#X connect 69 0 51 1;
#X connect 76 0 54 0;
#X connect 77 0 60 0;
#X connect 80 0 128 1;
#X connect 81 0 128 0;
#X connect 82 0 85 0;
#X connect 82 0 87 0;
#X connect 82 0 91 0;
#X connect 82 0 92 0;
#X connect 83 0 94 0;
#X connect 83 0 86 1;
#X connect 84 0 85 1;
#X connect 85 0 81 0;
#X connect 86 0 81 0;
#X connect 87 0 80 0;
#X connect 88 0 80 0;
#X connect 89 0 95 0;
#X connect 89 0 88 1;
#X connect 90 0 87 1;
#X connect 91 0 86 0;
#X connect 91 1 88 0;
#X connect 92 0 86 0;
#X connect 92 1 88 0;
#X connect 93 0 136 0;
#X connect 93 0 137 0;
#X connect 94 0 84 0;
#X connect 95 0 90 0;
#X connect 98 0 83 0;
#X connect 99 0 89 0;
#X connect 102 0 81 1;
#X connect 103 0 80 1;
#X connect 104 0 129 1;
#X connect 105 0 129 0;
#X connect 106 0 109 0;
#X connect 106 0 111 0;
#X connect 106 0 115 0;
#X connect 106 0 116 0;
#X connect 107 0 118 0;
#X connect 107 0 110 1;
#X connect 108 0 109 1;
#X connect 109 0 105 0;
#X connect 110 0 105 0;
#X connect 111 0 104 0;
#X connect 112 0 104 0;
#X connect 113 0 119 0;
#X connect 113 0 112 1;
#X connect 114 0 111 1;
#X connect 115 0 110 0;
#X connect 115 1 112 0;
#X connect 116 0 110 0;
#X connect 116 1 112 0;
#X connect 117 0 138 0;
#X connect 117 0 139 0;
#X connect 118 0 108 0;
#X connect 119 0 114 0;
#X connect 122 0 107 0;
#X connect 123 0 113 0;
#X connect 126 0 105 1;
#X connect 127 0 104 1;
#X connect 130 0 18 0;
#X connect 131 0 17 0;
#X connect 132 0 42 0;
#X connect 133 0 41 0;
#X connect 134 0 63 0;
#X connect 135 0 62 0;
#X connect 136 0 92 0;
#X connect 137 0 91 0;
#X connect 138 0 116 0;
#X connect 139 0 115 0;
