#N canvas 467 182 1190 712 10;
#X floatatom 209 502 5 0 0 0 - - -;
#X floatatom 328 502 5 0 0 0 - - -;
#X obj 209 482 r azi;
#X obj 328 481 r ele;
#X text 82 454 1st inlet is the signal and message input. 2nd inlet
is for azimuth. 3rd inlet is for elevation.;
#N canvas 446 318 1021 631 vas_fileformat 0;
#X obj 165 247 vas_binaural~;
#X msg 164 39 read multipulse.txt 256 0;
#X obj 240 370 *~ 0.5;
#X obj 165 370 *~ 0.5;
#X obj 165 404 dac~ 1 2;
#X obj 96 375 vu 8 80 empty empty -1 -8 0 10 -66577 -1 1 0;
#X obj 95 332 env~ 128;
#X obj 95 353 - 100;
#X obj 198 326 receive vol_sub;
#X obj 22 101 vsl 40 110 0 200 0 0 empty empty empty 0 -9 0 10 -261682
-1 -1 2398 1;
#X obj 22 223 / 127;
#X floatatom 115 248 5 0 0 0 - - -;
#X obj 22 56 loadbang;
#X msg 22 78 44;
#X obj 22 247 send vol_sub;
#X obj 184 145 s mute_main;
#X obj 184 101 t b;
#X msg 184 123 0;
#X obj 130 72 r~ source;
#X floatatom 202 215 5 0 0 0 - - -;
#X floatatom 240 215 5 0 0 0 - - -;
#X msg 130 13 read multiazimuthpulse.txt 256 0;
#X text 277 73 Have a look at the multiazimuthpulse.txt and the multipulse.txt
files. The former is a Unit Pulse for 6 different angles in the azimuth
plane. The latter one is a unit pulse with 2 angels in the elevation
and 4 angles in the azimuth plane. This results in 8 IRs altogether
for each channel.;
#X text 358 223 directionformat - The IR type \, either single \, azimuth
or multi. Single means that the file contains a single IR for each
channel \, azimuth that the file contains multiple IRs for several
azimuth angels and multi means \, that the file contains multiple IRs
for different elevation and azimuth angles.;
#X text 359 305 audioformat - Currently only stereo files are supported.
;
#X text 358 333 lineformat - Either ir or value. ir means \, that each
line contains a whole ir \, value means \, that each line contains
a single value (value will be deprecated soon).;
#X text 358 381 elevationstride - Values for elevation angles range
from 0 to 179 \, a stride of 90 means \, that the file contains two
different elevation angles \, 0 and 90;
#X text 358 429 azimuthstride - Values for azimuth range from 0 to
359 \, a stride of 3 means \, that the file contains 120 azimuth angles
for each elevation angle.;
#X text 360 479 Minimum stride is currently set to two (if anyone needs
a grid resolution of 1 degree let me know \, I reduced it because memory
allocation in Unity is terrebly slow..);
#X text 356 165 The metadata contains the following parameter:;
#X text 357 187 length - The length of each IR \, must greater than
16 and a power of 2;
#X connect 0 0 3 0;
#X connect 0 0 6 0;
#X connect 0 1 2 0;
#X connect 1 0 0 0;
#X connect 1 0 16 0;
#X connect 2 0 4 1;
#X connect 3 0 4 0;
#X connect 6 0 7 0;
#X connect 7 0 5 0;
#X connect 8 0 3 1;
#X connect 8 0 2 1;
#X connect 9 0 10 0;
#X connect 10 0 11 0;
#X connect 10 0 14 0;
#X connect 12 0 13 0;
#X connect 13 0 9 0;
#X connect 16 0 17 0;
#X connect 17 0 15 0;
#X connect 18 0 0 0;
#X connect 19 0 0 1;
#X connect 20 0 0 2;
#X connect 21 0 0 0;
#X restore 827 225 pd vas_fileformat;
#X obj 91 482 r~ source;
#X text 62 368 1st argument is the IR Set Name 2nd argument is the
partition size for the fft (default is 256). 3rd argument is the offset
in samples for the IR set. 4rth argument the end in samples.;
#X obj 91 526 vas_binaural~ 1024 FABIAN_HRIR_full.sofa;
#X msg 63 417 read HRIR_FULL2DEG.sofa 128 0 0;
#X obj 91 551 s~ left;
#X obj 328 550 s~ right;
#X connect 0 0 8 1;
#X connect 1 0 8 2;
#X connect 2 0 0 0;
#X connect 3 0 1 0;
#X connect 6 0 8 0;
#X connect 8 0 10 0;
#X connect 8 1 11 0;
#X connect 9 0 8 0;
