#N canvas 578 109 899 696 10;
#X obj 232 103 oscparse;
#X obj 232 80 netreceive -u -b;
#X msg 232 57 listen 51080;
#X obj 28 172 readsf~;
#X msg 75 147 1;
#X obj 24 52 bng 15 250 50 0 empty empty empty 17 7 0 10 #fcfcfc #000000
#000000;
#X obj 74 79 t b b;
#X obj 232 126 route list;
#X obj 232 148 route azimuth elevation;
#X obj 232 34 loadbang;
#X obj 521 287 vsl 40 110 0 200 0 0 empty empty empty 0 -9 0 10 #fce0c4
#000000 #000000 0 1;
#X obj 521 409 / 127;
#X floatatom 614 434 5 0 0 0 - - - 0;
#X obj 521 242 loadbang;
#X obj 24 29 loadbang;
#X msg 521 264 44;
#X msg 591 241 \; pd dsp 0;
#X obj 166 617 *~ 0.5;
#X obj 91 617 *~ 0.5;
#X obj 91 651 dac~ 1 2;
#X floatatom 248 463 5 0 0 0 - - - 0;
#X floatatom 406 464 5 0 0 0 - - - 0;
#X obj 21 591 vu 8 80 empty empty -1 -8 0 10 #404040 #000000 1 0;
#X obj 21 553 env~ 128;
#X obj 20 571 - 100;
#X obj 232 171 s azi;
#X obj 299 170 s ele;
#X obj 248 441 r azi;
#X obj 406 441 r ele;
#X text 96 485 1st inlet is the signal and message input. 2nd inlet
is for azimuth. 3rd inlet is for elevation.;
#X text 345 50 Receive elevation and azimuth from a headtracker via
osc. Instructions for building the vas headtracker are a available
at the vas git repository: github.com/funkerresch/vas_library;
#X text 485 524 Any further vas_binaural~ objects with the same partition
size and IR set will share the filter with the first object \, that
loaded the IR set. It does not allocate extra memory for the Impulse
Responses. As long as any object references a filter set \, the object
that loaded the original set will not accept a new IR set.;
#N canvas 335 99 1021 631 vas_fileformat 0;
#X obj 240 370 *~ 0.5;
#X obj 165 370 *~ 0.5;
#X obj 165 404 dac~ 1 2;
#X obj 96 375 vu 8 80 empty empty -1 -8 0 10 #404040 #000000 1 0;
#X obj 95 332 env~ 128;
#X obj 95 353 - 100;
#X obj 198 326 receive vol_sub;
#X obj 22 101 vsl 40 110 0 200 0 0 empty empty empty 0 -9 0 10 #fce0c4
#000000 #000000 0 1;
#X obj 22 223 / 127;
#X floatatom 115 248 5 0 0 0 - - - 0;
#X obj 22 56 loadbang;
#X msg 22 78 44;
#X obj 22 247 send vol_sub;
#X obj 184 145 s mute_main;
#X obj 184 101 t b;
#X msg 184 123 0;
#X obj 130 72 r~ source;
#X floatatom 220 217 5 0 0 0 - - - 0;
#X floatatom 276 217 5 0 0 0 - - - 0;
#X text 277 73 Have a look at the multiazimuthpulse.txt and the multipulse.txt
files. The former is a Unit Pulse for 6 different angles in the azimuth
plane. The latter one is a unit pulse with 2 angels in the elevation
and 4 angles in the azimuth plane. This results in 8 IRs altogether
for each channel.;
#X text 358 223 directionformat - The IR type \, either single \, azimuth
or multi. Single means that the file contains a single IR for each
channel \, azimuth that the file contains multiple IRs for several
azimuth angels and multi means \, that the file contains multiple IRs
for different elevation and azimuth angles.;
#X text 359 305 audioformat - Currently only stereo files are supported.
;
#X text 358 333 lineformat - Either ir or value. ir means \, that each
line contains a whole ir \, value means \, that each line contains
a single value (value will be deprecated soon).;
#X text 358 381 elevationstride - Values for elevation angles range
from 0 to 179 \, a stride of 90 means \, that the file contains two
different elevation angles \, 0 and 90;
#X text 358 429 azimuthstride - Values for azimuth range from 0 to
359 \, a stride of 3 means \, that the file contains 120 azimuth angles
for each elevation angle.;
#X text 360 479 Minimum stride is currently set to two (if anyone needs
a grid resolution of 1 degree let me know \, I reduced it because memory
allocation in Unity is terrebly slow..);
#X text 356 165 The metadata contains the following parameter:;
#X text 357 187 length - The length of each IR \, must greater than
16 and a power of 2;
#X obj 165 247 rwa_binauralsimple~;
#X msg 130 13 read test/multiazimuthpulse.txt 256 0;
#X msg 164 39 read test/multipulse.txt 256 0;
#X connect 0 0 2 1;
#X connect 1 0 2 0;
#X connect 4 0 5 0;
#X connect 5 0 3 0;
#X connect 6 0 1 1;
#X connect 6 0 0 1;
#X connect 7 0 8 0;
#X connect 8 0 9 0;
#X connect 8 0 12 0;
#X connect 10 0 11 0;
#X connect 11 0 7 0;
#X connect 14 0 15 0;
#X connect 15 0 13 0;
#X connect 16 0 28 0;
#X connect 17 0 28 1;
#X connect 18 0 28 2;
#X connect 28 0 1 0;
#X connect 28 0 4 0;
#X connect 28 1 0 0;
#X connect 29 0 28 0;
#X connect 30 0 14 0;
#X connect 30 0 28 0;
#X restore 453 183 pd vas_fileformat;
#X obj 28 195 s~ source;
#X obj 90 408 r~ source;
#X obj 521 433 send vol_main;
#X obj 124 573 receive vol_main;
#X obj 578 282 r mute_main;
#X text 55 266 1st argument is the IR Set Name 2nd argument is the
partition size for the fft (default is 256). 3rd argument is the offset
in samples for the IR set. 4rth argument the end in samples.;
#X obj 91 526 rwa_binauralsimple~ 128 hrtfbrir/FABIAN_DIR_Full.sofa
;
#X msg 224 360 read hrtfbrir/fabian_dir256.txt 128 0 0;
#X msg 27 124 open audio/cicerospeech.wav;
#X msg 31 333 read hrtfbrir/fr_pos0.txt 256 0 10000;
#X connect 0 0 7 0;
#X connect 1 0 0 0;
#X connect 2 0 1 0;
#X connect 3 0 33 0;
#X connect 3 1 5 0;
#X connect 4 0 3 0;
#X connect 5 0 6 0;
#X connect 6 0 4 0;
#X connect 6 1 41 0;
#X connect 7 0 8 0;
#X connect 8 0 25 0;
#X connect 8 1 26 0;
#X connect 9 0 2 0;
#X connect 10 0 11 0;
#X connect 11 0 12 0;
#X connect 11 0 35 0;
#X connect 13 0 15 0;
#X connect 14 0 5 0;
#X connect 15 0 10 0;
#X connect 17 0 19 1;
#X connect 18 0 19 0;
#X connect 20 0 39 1;
#X connect 21 0 39 2;
#X connect 23 0 24 0;
#X connect 24 0 22 0;
#X connect 27 0 20 0;
#X connect 28 0 21 0;
#X connect 34 0 39 0;
#X connect 36 0 18 1;
#X connect 36 0 17 1;
#X connect 37 0 10 0;
#X connect 39 0 18 0;
#X connect 39 0 23 0;
#X connect 39 1 17 0;
#X connect 40 0 39 0;
#X connect 41 0 3 0;
#X connect 42 0 39 0;
