#N canvas 334 385 910 725 10;
#X obj 114 215 dac~;
#X obj 481 114 readsf~;
#X msg 528 89 1;
#X obj 480 14 bng 15 250 50 0 empty empty empty 17 7 0 10 #fcfcfc #000000
#000000;
#X obj 528 39 t b b;
#X msg 736 9 \; pd dsp 0;
#N canvas 0 23 450 300 (subpatch) 0;
#X array IR1_arrayL 44568 float 0;
#X coords 0 0.05 44567 -0.05 200 80 1 0 0;
#X restore 462 401 graph;
#X obj 114 49 soundfiler;
#X floatatom 114 71 0 0 0 0 - - - 0;
#N canvas 0 23 450 300 (subpatch) 0;
#X array IR1_arrayR 44568 float 0;
#X coords 0 0.05 44567 -0.05 200 80 1 0 0;
#X restore 668 401 graph;
#X obj 313 130 vu 8 80 empty empty -1 -8 0 10 #404040 #000000 1 0;
#X obj 313 92 env~ 128;
#X obj 312 110 - 100;
#X msg 481 89 0;
#X obj 214 184 *~ 0.5;
#X obj 114 187 *~ 0.5;
#X obj 483 207 vsl 40 110 0 200 0 0 empty empty empty 0 -9 0 10 #fce0c4
#000000 #000000 0 1;
#X obj 483 332 / 127;
#X floatatom 562 356 5 0 0 0 - - - 0;
#X obj 483 162 loadbang;
#X msg 483 184 44;
#X obj 483 356 send volume1;
#X obj 147 143 receive volume1;
#N canvas 0 23 450 300 (subpatch) 0;
#X array IR2_arrayL 114155 float 0;
#X coords 0 0.05 114154 -0.05 200 80 1 0 0;
#X restore 462 507 graph;
#N canvas 0 23 450 300 (subpatch) 0;
#X array IR2_arrayR 114155 float 0;
#X coords 0 0.05 114154 -0.05 200 80 1 0 0;
#X restore 668 507 graph;
#N canvas 0 23 450 300 (subpatch) 0;
#X array IR3_arrayL 145156 float 0;
#X coords 0 0.05 145155 -0.05 200 80 1 0 0;
#X restore 462 608 graph;
#N canvas 0 23 450 300 (subpatch) 0;
#X array IR3_arrayR 145156 float 0;
#X coords 0 0.05 145155 -0.05 200 80 1 0 0;
#X restore 668 608 graph;
#X obj 481 135 send~ audio;
#X obj 114 447 dac~;
#X obj 114 281 soundfiler;
#X floatatom 114 303 0 0 0 0 - - - 0;
#X obj 214 418 *~ 0.5;
#X obj 114 419 *~ 0.5;
#X obj 113 677 dac~;
#X obj 113 511 soundfiler;
#X floatatom 113 533 0 0 0 0 - - - 0;
#X obj 214 646 *~ 0.5;
#X obj 113 649 *~ 0.5;
#X obj 147 375 receive volume2;
#X obj 146 605 receive volume3;
#X obj 609 208 vsl 40 110 0 200 0 0 empty empty empty 0 -9 0 10 #fce0c4
#000000 #000000 0 1;
#X obj 609 333 / 127;
#X floatatom 688 357 5 0 0 0 - - - 0;
#X obj 609 163 loadbang;
#X obj 731 207 vsl 40 110 0 200 0 0 empty empty empty 0 -9 0 10 #fce0c4
#000000 #000000 0 1;
#X obj 731 332 / 127;
#X floatatom 810 356 5 0 0 0 - - - 0;
#X obj 731 162 loadbang;
#X obj 609 357 send volume2;
#X obj 731 356 send volume3;
#X msg 114 257 read -resize irs/Church.wav IR2_arrayL IR2_arrayR \;
;
#X obj 193 49 receive~ audio;
#X obj 187 281 receive~ audio;
#X obj 186 511 receive~ audio;
#X obj 315 360 vu 8 80 empty empty -1 -8 0 10 #404040 #000000 1 0;
#X obj 315 322 env~ 128;
#X obj 314 340 - 100;
#X obj 315 589 vu 8 80 empty empty -1 -8 0 10 #404040 #000000 1 0;
#X obj 315 551 env~ 128;
#X obj 314 569 - 100;
#X msg 113 553 set IR3_arrayL IR3_arrayR 64;
#X msg 114 323 set IR2_arrayL IR2_arrayR 64;
#X msg 113 487 read -resize irs/MediumStage.aif IR3_arrayL IR3_arrayR
\;;
#X text 6 15 Load first IR;
#X text 8 256 Load second IR;
#X text 14 486 Load third IR;
#X msg 737 47 \; pd dsp 1;
#X text 510 12 Start test playback;
#X obj 114 112 vas_paracon~ 1024;
#X obj 114 344 vas_paracon~ 1024;
#X obj 113 574 vas_paracon~ 1024;
#X msg 114 91 set IR1_arrayL IR1_arrayR 64;
#X msg 114 15 read -resize irs/outdoor1.wav IR1_arrayL IR1_arrayR \;
;
#X msg 609 185 0;
#X msg 731 184 0;
#X obj 543 161 tgl 25 0 empty empty empty 17 7 0 10 #c7c6ff #000000
#000000 0 1;
#N canvas 302 313 450 300 togch 0;
#X obj 160 97 select 1;
#X obj 160 74 inlet;
#X msg 160 120 0;
#X obj 160 143 outlet;
#X connect 0 0 2 0;
#X connect 1 0 0 0;
#X connect 2 0 3 0;
#X restore 544 207 pd togch;
#X msg 480 66 open audio/cicerospeech.wav;
#X connect 1 0 27 0;
#X connect 1 1 3 0;
#X connect 2 0 1 0;
#X connect 3 0 4 0;
#X connect 4 0 2 0;
#X connect 4 1 77 0;
#X connect 7 0 8 0;
#X connect 8 0 71 0;
#X connect 11 0 12 0;
#X connect 12 0 10 0;
#X connect 13 0 1 0;
#X connect 14 0 0 1;
#X connect 15 0 0 0;
#X connect 15 0 11 0;
#X connect 16 0 17 0;
#X connect 17 0 18 0;
#X connect 17 0 21 0;
#X connect 19 0 20 0;
#X connect 20 0 16 0;
#X connect 22 0 15 1;
#X connect 22 0 14 1;
#X connect 29 0 30 0;
#X connect 30 0 61 0;
#X connect 31 0 28 1;
#X connect 32 0 28 0;
#X connect 32 0 55 0;
#X connect 34 0 35 0;
#X connect 35 0 60 0;
#X connect 36 0 33 1;
#X connect 37 0 33 0;
#X connect 37 0 58 0;
#X connect 38 0 32 1;
#X connect 38 0 31 1;
#X connect 39 0 37 1;
#X connect 39 0 36 1;
#X connect 40 0 41 0;
#X connect 41 0 42 0;
#X connect 41 0 48 0;
#X connect 43 0 73 0;
#X connect 44 0 45 0;
#X connect 45 0 46 0;
#X connect 45 0 49 0;
#X connect 47 0 74 0;
#X connect 50 0 29 0;
#X connect 51 0 68 0;
#X connect 52 0 69 0;
#X connect 53 0 70 0;
#X connect 55 0 56 0;
#X connect 56 0 54 0;
#X connect 58 0 59 0;
#X connect 59 0 57 0;
#X connect 60 0 70 0;
#X connect 61 0 69 0;
#X connect 62 0 34 0;
#X connect 68 0 15 0;
#X connect 68 1 14 0;
#X connect 69 0 32 0;
#X connect 69 1 31 0;
#X connect 70 0 37 0;
#X connect 70 1 36 0;
#X connect 71 0 68 0;
#X connect 72 0 7 0;
#X connect 73 0 40 0;
#X connect 74 0 44 0;
#X connect 77 0 1 0;
