#N canvas 454 56 754 521 10;
#X obj 97 449 dac~;
#X obj 29 154 readsf~;
#X msg 76 129 1;
#X obj 28 47 bng 15 250 50 0 empty empty empty 17 7 0 10 #fcfcfc #000000
#000000;
#X obj 74 76 t b b;
#X msg 27 8 \; pd dsp 0;
#N canvas 0 23 450 300 (subpatch) 0;
#X array arrayL 114155 float 0;
#X coords 0 0.05 114154 -0.05 200 80 1 0 0;
#X restore 303 399 graph;
#X obj 209 234 soundfiler;
#X floatatom 209 256 0 0 0 0 - - - 0;
#N canvas 0 23 450 300 (subpatch) 0;
#X array arrayR 114155 float 0;
#X coords 0 0.05 114154 -0.05 200 80 1 0 0;
#X restore 509 399 graph;
#X obj 15 425 vu 8 80 empty empty -1 -8 0 10 #404040 #000000 1 0;
#X obj 15 387 env~ 128;
#X obj 14 405 - 100;
#X text 106 309 1st inlet is the signal and message input.;
#X msg 109 129 0;
#X msg 28 226 read fr_pos0_tail.txt 2048;
#X text 24 205 read loads IRs from a vas text file.;
#X text 355 269 Ir (sets) can be loaded from pd arrays with the set
function.;
#X text 210 41 click here to load array;
#X msg 209 63 read -resize outdoor1.wav arrayL arrayR \;;
#X obj 196 418 *~ 0.5;
#X obj 97 421 *~ 0.5;
#X obj 596 74 vsl 40 110 0 200 0 0 empty empty empty 0 -9 0 10 #fce0c4
#000000 #000000 0 1;
#X obj 596 199 / 127;
#X floatatom 675 223 5 0 0 0 - - - 0;
#X obj 596 29 loadbang;
#X msg 596 51 44;
#X obj 596 223 send volume1;
#X obj 130 377 receive volume1;
#X msg 291 180 read -resize irs/LargeCanon.wav arrayL arrayR \;;
#X msg 28 106 open audio/cicerospeech.wav;
#X msg 269 153 read -resize test/unitpulse.wav arrayL arrayR \;;
#X msg 248 126 read -resize irs/Church.wav arrayL arrayR \;;
#X msg 229 89 read -resize irs/Room7_KMB_v2_44.1kHz_16bit.wav arrayL
arrayR \;;
#X msg 209 276 set arrayL arrayR 512;
#X text 221 343 1st argument is min partition size. 2nd argument IR
(set) to load.;
#X obj 97 346 vas_paracon~ 1024;
#X connect 1 0 36 0;
#X connect 1 1 3 0;
#X connect 2 0 1 0;
#X connect 3 0 4 0;
#X connect 4 0 2 0;
#X connect 4 1 30 0;
#X connect 7 0 8 0;
#X connect 8 0 34 0;
#X connect 11 0 12 0;
#X connect 12 0 10 0;
#X connect 14 0 1 0;
#X connect 15 0 36 0;
#X connect 19 0 7 0;
#X connect 20 0 0 1;
#X connect 21 0 0 0;
#X connect 22 0 23 0;
#X connect 23 0 24 0;
#X connect 23 0 27 0;
#X connect 25 0 26 0;
#X connect 26 0 22 0;
#X connect 28 0 21 1;
#X connect 28 0 20 1;
#X connect 29 0 7 0;
#X connect 30 0 1 0;
#X connect 31 0 7 0;
#X connect 32 0 7 0;
#X connect 33 0 7 0;
#X connect 34 0 36 0;
#X connect 36 0 11 0;
#X connect 36 0 21 0;
#X connect 36 1 20 0;
