#N canvas 60 209 1468 771 12;
#X obj 300 148 oscparse;
#X obj 300 121 netreceive -u -b;
#X obj 300 174 route list;
#X obj 300 70 loadbang;
#X msg 300 96 listen 51004;
#X obj 300 200 route uOSC;
#X msg 31 91 1;
#X obj 31 42 t b b;
#X obj 31 15 bng 15 250 50 0 empty empty empty 17 7 0 10 -262144 -1
-1;
#X msg 70 91 0;
#X obj 58 139 readsf~ 6;
#X msg 63 68 open SurroundPercussion.aif;
#X obj 58 165 send~ source1;
#X obj 69 190 send~ source2;
#X obj 79 214 send~ source3;
#X obj 88 238 send~ source4;
#X obj 300 225 s osc;
#X obj 62 630 dac~;
#X obj 26 462 vas_binaural~ 256 fabian_dir256.txt;
#X obj 147 381 route azi;
#X obj 268 382 route ele;
#X floatatom 147 406 5 0 0 0 - - -;
#X floatatom 268 407 5 0 0 0 - - -;
#X obj 80 314 r osc;
#X obj 80 489 route dist;
#X obj 62 601 *~;
#X obj 95 601 *~;
#X obj 26 433 receive~ source1;
#X obj 80 339 route source1;
#X obj 80 544 expr 1/pow($f1 \, 2);
#X floatatom 473 127 5 0 0 0 - - -;
#X obj 473 155 s distOffset;
#X obj 80 515 -;
#X obj 164 489 r distOffset;
#X obj 80 573 clip 0 1;
#X obj 473 71 loadbang;
#X obj 147 432 + 0;
#X obj 268 434 + 0;
#X obj 414 633 dac~;
#X obj 378 465 vas_binaural~ 256 fabian_dir256.txt;
#X obj 499 384 route azi;
#X obj 620 385 route ele;
#X floatatom 499 409 5 0 0 0 - - -;
#X floatatom 620 410 5 0 0 0 - - -;
#X obj 432 317 r osc;
#X obj 432 492 route dist;
#X obj 414 604 *~;
#X obj 447 604 *~;
#X obj 432 547 expr 1/pow($f1 \, 2);
#X obj 432 518 -;
#X obj 516 492 r distOffset;
#X obj 432 576 clip 0 1;
#X obj 499 435 + 0;
#X obj 620 437 + 0;
#X obj 432 342 route source2;
#X obj 378 436 receive~ source2;
#X obj 768 661 dac~;
#X obj 732 493 vas_binaural~ 256 fabian_dir256.txt;
#X obj 853 412 route azi;
#X obj 974 413 route ele;
#X floatatom 853 437 5 0 0 0 - - -;
#X floatatom 974 438 5 0 0 0 - - -;
#X obj 786 345 r osc;
#X obj 786 520 route dist;
#X obj 768 632 *~;
#X obj 801 632 *~;
#X obj 786 575 expr 1/pow($f1 \, 2);
#X obj 786 546 -;
#X obj 870 520 r distOffset;
#X obj 786 604 clip 0 1;
#X obj 853 463 + 0;
#X obj 974 465 + 0;
#X obj 786 370 route source3;
#X obj 732 464 receive~ source3;
#X obj 1126 660 dac~;
#X obj 1090 492 vas_binaural~ 256 fabian_dir256.txt;
#X obj 1211 411 route azi;
#X obj 1332 412 route ele;
#X floatatom 1211 436 5 0 0 0 - - -;
#X floatatom 1332 437 5 0 0 0 - - -;
#X obj 1144 344 r osc;
#X obj 1144 519 route dist;
#X obj 1126 631 *~;
#X obj 1159 631 *~;
#X obj 1144 574 expr 1/pow($f1 \, 2);
#X obj 1144 545 -;
#X obj 1228 519 r distOffset;
#X obj 1144 603 clip 0 1;
#X obj 1211 462 + 0;
#X obj 1332 464 + 0;
#X obj 1144 369 route source4;
#X obj 1090 463 receive~ source4;
#X msg 197 339 azidirection \$1;
#X obj 197 301 tgl 15 0 empty empty empty 17 7 0 10 -262144 -1 -1 1
1;
#X text 756 157 Load the Unity SpatializerTest with Scene SendOSC.
;
#X msg 473 99 20;
#X connect 0 0 2 0;
#X connect 1 0 0 0;
#X connect 2 0 5 0;
#X connect 3 0 4 0;
#X connect 4 0 1 0;
#X connect 5 0 16 0;
#X connect 6 0 10 0;
#X connect 7 0 6 0;
#X connect 7 1 11 0;
#X connect 8 0 7 0;
#X connect 9 0 10 0;
#X connect 10 0 12 0;
#X connect 10 1 13 0;
#X connect 10 2 14 0;
#X connect 10 3 15 0;
#X connect 10 6 7 0;
#X connect 11 0 10 0;
#X connect 18 0 25 0;
#X connect 18 1 26 0;
#X connect 19 0 21 0;
#X connect 20 0 22 0;
#X connect 21 0 36 0;
#X connect 22 0 37 0;
#X connect 23 0 28 0;
#X connect 24 0 32 0;
#X connect 25 0 17 0;
#X connect 26 0 17 1;
#X connect 27 0 18 0;
#X connect 28 0 19 0;
#X connect 28 0 20 0;
#X connect 28 0 24 0;
#X connect 29 0 34 0;
#X connect 30 0 31 0;
#X connect 32 0 29 0;
#X connect 33 0 32 1;
#X connect 34 0 25 1;
#X connect 34 0 26 1;
#X connect 35 0 95 0;
#X connect 36 0 18 1;
#X connect 37 0 18 2;
#X connect 39 0 46 0;
#X connect 39 1 47 0;
#X connect 40 0 42 0;
#X connect 41 0 43 0;
#X connect 42 0 52 0;
#X connect 43 0 53 0;
#X connect 44 0 54 0;
#X connect 45 0 49 0;
#X connect 46 0 38 0;
#X connect 47 0 38 1;
#X connect 48 0 51 0;
#X connect 49 0 48 0;
#X connect 50 0 49 1;
#X connect 51 0 46 1;
#X connect 51 0 47 1;
#X connect 52 0 39 1;
#X connect 53 0 39 2;
#X connect 54 0 40 0;
#X connect 54 0 41 0;
#X connect 54 0 45 0;
#X connect 55 0 39 0;
#X connect 57 0 64 0;
#X connect 57 1 65 0;
#X connect 58 0 60 0;
#X connect 59 0 61 0;
#X connect 60 0 70 0;
#X connect 61 0 71 0;
#X connect 62 0 72 0;
#X connect 63 0 67 0;
#X connect 64 0 56 0;
#X connect 65 0 56 1;
#X connect 66 0 69 0;
#X connect 67 0 66 0;
#X connect 68 0 67 1;
#X connect 69 0 64 1;
#X connect 69 0 65 1;
#X connect 70 0 57 1;
#X connect 71 0 57 2;
#X connect 72 0 58 0;
#X connect 72 0 59 0;
#X connect 72 0 63 0;
#X connect 73 0 57 0;
#X connect 75 0 82 0;
#X connect 75 1 83 0;
#X connect 76 0 78 0;
#X connect 77 0 79 0;
#X connect 78 0 88 0;
#X connect 79 0 89 0;
#X connect 80 0 90 0;
#X connect 81 0 85 0;
#X connect 82 0 74 0;
#X connect 83 0 74 1;
#X connect 84 0 87 0;
#X connect 85 0 84 0;
#X connect 86 0 85 1;
#X connect 87 0 82 1;
#X connect 87 0 83 1;
#X connect 88 0 75 1;
#X connect 89 0 75 2;
#X connect 90 0 76 0;
#X connect 90 0 77 0;
#X connect 90 0 81 0;
#X connect 91 0 75 0;
#X connect 92 0 18 0;
#X connect 92 0 39 0;
#X connect 92 0 57 0;
#X connect 92 0 75 0;
#X connect 93 0 92 0;
#X connect 95 0 30 0;
