#N canvas 410 222 1190 712 10;
#X obj 92 181 readsf~;
#X msg 139 156 1;
#X obj 88 61 bng 15 250 50 0 empty empty empty 17 7 0 10 -262144 -1
-1;
#X obj 138 88 t b b;
#X obj 279 77 vsl 40 110 0 200 0 0 empty empty empty 0 -9 0 10 -261682
-1 -1 2398 1;
#X obj 279 199 / 127;
#X floatatom 372 224 5 0 0 0 - - -;
#X obj 279 32 loadbang;
#X obj 88 38 loadbang;
#X msg 279 54 44;
#X msg 349 31 \; pd dsp 0;
#X obj 230 626 *~ 0.5;
#X obj 155 626 *~ 0.5;
#X obj 155 660 dac~ 1 2;
#X obj 85 600 vu 8 80 empty empty -1 -8 0 10 -66577 -1 1 0;
#X obj 85 562 env~ 128;
#X obj 84 580 - 100;
#X obj 92 204 s~ source;
#X obj 105 397 r~ source;
#X obj 279 223 send vol_main;
#X obj 188 582 receive vol_main;
#X obj 336 72 r mute_main;
#X msg 91 133 open cicerospeech.wav;
#X obj 150 457 vas_del~;
#X msg 245 405 delaytime \$1;
#X floatatom 327 332 5 0 0 0 - - -;
#X connect 0 0 17 0;
#X connect 0 1 2 0;
#X connect 1 0 0 0;
#X connect 2 0 3 0;
#X connect 3 0 1 0;
#X connect 3 1 22 0;
#X connect 4 0 5 0;
#X connect 5 0 6 0;
#X connect 5 0 19 0;
#X connect 7 0 9 0;
#X connect 8 0 2 0;
#X connect 9 0 4 0;
#X connect 11 0 13 1;
#X connect 12 0 13 0;
#X connect 15 0 16 0;
#X connect 16 0 14 0;
#X connect 18 0 23 0;
#X connect 20 0 12 1;
#X connect 20 0 11 1;
#X connect 21 0 4 0;
#X connect 22 0 0 0;
#X connect 23 0 12 0;
#X connect 23 0 11 0;
#X connect 23 0 15 0;
#X connect 24 0 23 0;
#X connect 25 0 24 0;
