#N canvas 585 76 659 716 10;
#X obj 26 179 readsf~;
#X msg 74 154 1;
#X obj 23 59 bng 15 250 50 0 empty empty empty 17 7 0 10 #fcfcfc #000000
#000000;
#X obj 73 86 t b b;
#X obj 239 73 vsl 40 110 0 200 0 0 empty empty empty 0 -9 0 10 #fce0c4
#000000 #000000 0 1;
#X obj 239 195 / 127;
#X floatatom 332 220 5 0 0 0 - - - 0;
#X obj 239 28 loadbang;
#X obj 23 36 loadbang;
#X msg 239 50 44;
#X msg 309 27 \; pd dsp 0;
#X obj 144 512 *~ 0.5;
#X obj 99 513 *~ 0.5;
#X obj 99 547 dac~ 1 2;
#X obj 29 487 vu 8 80 empty empty -1 -8 0 10 #404040 #000000 1 0;
#X obj 29 449 env~ 128;
#X obj 28 467 - 100;
#X obj 26 202 s~ source;
#X obj 31 354 r~ source;
#X obj 239 219 send vol_main;
#X obj 132 469 receive vol_main;
#X obj 296 68 r mute_main;
#X msg 26 131 open audio/cicerospeech.wav;
#X obj 99 422 vas_attenuate~ 10;
#X msg 49 298 distance \$1;
#X floatatom 49 265 5 0 0 0 - - - 0;
#X text 106 400 1st inlet is the signal and message input.;
#X floatatom 142 218 5 0 0 0 - - - 0;
#X msg 142 251 maxdistance \$1;
#X floatatom 165 278 5 0 0 0 - - - 0;
#X msg 165 311 minattenuation \$1;
#X floatatom 193 336 5 0 0 0 - - - 0;
#X msg 193 369 maxattenuation \$1;
#X text 224 422 1st argument is the max distance after which the attenuation
factor becomes zero.;
#X msg 303 278 1;
#X msg 343 278 1.7;
#X msg 383 278 3;
#X msg 304 309 steepness \$1;
#X connect 0 0 17 0;
#X connect 0 1 2 0;
#X connect 1 0 0 0;
#X connect 2 0 3 0;
#X connect 3 0 1 0;
#X connect 3 1 22 0;
#X connect 4 0 5 0;
#X connect 5 0 6 0;
#X connect 5 0 19 0;
#X connect 7 0 9 0;
#X connect 8 0 2 0;
#X connect 9 0 4 0;
#X connect 11 0 13 1;
#X connect 12 0 13 0;
#X connect 15 0 16 0;
#X connect 16 0 14 0;
#X connect 18 0 23 0;
#X connect 20 0 12 1;
#X connect 20 0 11 1;
#X connect 21 0 4 0;
#X connect 22 0 0 0;
#X connect 23 0 12 0;
#X connect 23 0 15 0;
#X connect 23 0 11 0;
#X connect 24 0 23 0;
#X connect 25 0 24 0;
#X connect 27 0 28 0;
#X connect 28 0 23 0;
#X connect 29 0 30 0;
#X connect 30 0 23 0;
#X connect 31 0 32 0;
#X connect 32 0 23 0;
#X connect 34 0 37 0;
#X connect 35 0 37 0;
#X connect 36 0 37 0;
#X connect 37 0 23 0;
