#N canvas 123 23 1610 1110 10;
#X obj 154 120 dac~ 1 2;
#X floatatom 110 20 5 0 0 0 - azimuth -;
#X floatatom 199 19 5 0 0 0 - elevation -;
#X obj 22 21 adc~ 1;
#X msg 1532 49 \; pd dsp 1;
#X obj 1532 25 loadbang;
#X obj 22 57 vas_binaural~ 1024 fr_pos0.txt;
#X obj 238 56 vas_reverb~ 4096 fr_pos0_tail.txt;
#X obj 589 119 dac~ 1 2;
#X floatatom 545 19 5 0 0 0 - azimuth -;
#X floatatom 634 18 5 0 0 0 - elevation -;
#X obj 457 20 adc~ 1;
#X obj 457 56 vas_binaural~ 1024 fr_pos0.txt;
#X obj 673 55 vas_reverb~ 4096 fr_pos0_tail.txt;
#X obj 151 265 dac~ 1 2;
#X floatatom 107 165 5 0 0 0 - azimuth -;
#X floatatom 196 164 5 0 0 0 - elevation -;
#X obj 19 166 adc~ 1;
#X obj 19 202 vas_binaural~ 1024 fr_pos0.txt;
#X obj 235 201 vas_reverb~ 4096 fr_pos0_tail.txt;
#X obj 605 262 dac~ 1 2;
#X floatatom 561 162 5 0 0 0 - azimuth -;
#X floatatom 650 161 5 0 0 0 - elevation -;
#X obj 473 163 adc~ 1;
#X obj 473 199 vas_binaural~ 1024 fr_pos0.txt;
#X obj 689 198 vas_reverb~ 4096 fr_pos0_tail.txt;
#X obj 155 426 dac~ 1 2;
#X floatatom 111 326 5 0 0 0 - azimuth -;
#X floatatom 200 325 5 0 0 0 - elevation -;
#X obj 23 327 adc~ 1;
#X obj 23 363 vas_binaural~ 1024 fr_pos0.txt;
#X obj 239 362 vas_reverb~ 4096 fr_pos0_tail.txt;
#X obj 590 425 dac~ 1 2;
#X floatatom 546 325 5 0 0 0 - azimuth -;
#X floatatom 635 324 5 0 0 0 - elevation -;
#X obj 458 326 adc~ 1;
#X obj 458 362 vas_binaural~ 1024 fr_pos0.txt;
#X obj 674 361 vas_reverb~ 4096 fr_pos0_tail.txt;
#X obj 152 571 dac~ 1 2;
#X floatatom 108 471 5 0 0 0 - azimuth -;
#X floatatom 197 470 5 0 0 0 - elevation -;
#X obj 20 472 adc~ 1;
#X obj 20 508 vas_binaural~ 1024 fr_pos0.txt;
#X obj 236 507 vas_reverb~ 4096 fr_pos0_tail.txt;
#X obj 606 568 dac~ 1 2;
#X floatatom 562 468 5 0 0 0 - azimuth -;
#X floatatom 651 467 5 0 0 0 - elevation -;
#X obj 474 469 adc~ 1;
#X obj 474 505 vas_binaural~ 1024 fr_pos0.txt;
#X obj 690 504 vas_reverb~ 4096 fr_pos0_tail.txt;
#X obj 171 720 dac~ 1 2;
#X floatatom 127 620 5 0 0 0 - azimuth -;
#X floatatom 216 619 5 0 0 0 - elevation -;
#X obj 39 621 adc~ 1;
#X obj 39 657 vas_binaural~ 1024 fr_pos0.txt;
#X obj 255 656 vas_reverb~ 4096 fr_pos0_tail.txt;
#X obj 606 719 dac~ 1 2;
#X floatatom 562 619 5 0 0 0 - azimuth -;
#X floatatom 651 618 5 0 0 0 - elevation -;
#X obj 474 620 adc~ 1;
#X obj 474 656 vas_binaural~ 1024 fr_pos0.txt;
#X obj 690 655 vas_reverb~ 4096 fr_pos0_tail.txt;
#X obj 168 865 dac~ 1 2;
#X floatatom 124 765 5 0 0 0 - azimuth -;
#X floatatom 213 764 5 0 0 0 - elevation -;
#X obj 36 766 adc~ 1;
#X obj 36 802 vas_binaural~ 1024 fr_pos0.txt;
#X obj 252 801 vas_reverb~ 4096 fr_pos0_tail.txt;
#X obj 622 862 dac~ 1 2;
#X floatatom 578 762 5 0 0 0 - azimuth -;
#X floatatom 667 761 5 0 0 0 - elevation -;
#X obj 490 763 adc~ 1;
#X obj 490 799 vas_binaural~ 1024 fr_pos0.txt;
#X obj 706 798 vas_reverb~ 4096 fr_pos0_tail.txt;
#X obj 172 1026 dac~ 1 2;
#X floatatom 128 926 5 0 0 0 - azimuth -;
#X floatatom 217 925 5 0 0 0 - elevation -;
#X obj 40 927 adc~ 1;
#X obj 40 963 vas_binaural~ 1024 fr_pos0.txt;
#X obj 256 962 vas_reverb~ 4096 fr_pos0_tail.txt;
#X obj 607 1025 dac~ 1 2;
#X floatatom 563 925 5 0 0 0 - azimuth -;
#X floatatom 652 924 5 0 0 0 - elevation -;
#X obj 475 926 adc~ 1;
#X obj 475 962 vas_binaural~ 1024 fr_pos0.txt;
#X obj 691 961 vas_reverb~ 4096 fr_pos0_tail.txt;
#X obj 169 1171 dac~ 1 2;
#X floatatom 125 1071 5 0 0 0 - azimuth -;
#X floatatom 214 1070 5 0 0 0 - elevation -;
#X obj 37 1072 adc~ 1;
#X obj 37 1108 vas_binaural~ 1024 fr_pos0.txt;
#X obj 253 1107 vas_reverb~ 4096 fr_pos0_tail.txt;
#X obj 623 1168 dac~ 1 2;
#X floatatom 579 1068 5 0 0 0 - azimuth -;
#X floatatom 668 1067 5 0 0 0 - elevation -;
#X obj 491 1069 adc~ 1;
#X obj 491 1105 vas_binaural~ 1024 fr_pos0.txt;
#X obj 707 1104 vas_reverb~ 4096 fr_pos0_tail.txt;
#X obj 1054 117 dac~ 1 2;
#X floatatom 1010 17 5 0 0 0 - azimuth -;
#X floatatom 1099 16 5 0 0 0 - elevation -;
#X obj 922 18 adc~ 1;
#X obj 922 54 vas_binaural~ 1024 fr_pos0.txt;
#X obj 1138 53 vas_reverb~ 4096 fr_pos0_tail.txt;
#X obj 1070 260 dac~ 1 2;
#X floatatom 1026 160 5 0 0 0 - azimuth -;
#X floatatom 1115 159 5 0 0 0 - elevation -;
#X obj 938 161 adc~ 1;
#X obj 938 197 vas_binaural~ 1024 fr_pos0.txt;
#X obj 1154 196 vas_reverb~ 4096 fr_pos0_tail.txt;
#X obj 1055 423 dac~ 1 2;
#X floatatom 1011 323 5 0 0 0 - azimuth -;
#X floatatom 1100 322 5 0 0 0 - elevation -;
#X obj 923 324 adc~ 1;
#X obj 923 360 vas_binaural~ 1024 fr_pos0.txt;
#X obj 1139 359 vas_reverb~ 4096 fr_pos0_tail.txt;
#X obj 1071 566 dac~ 1 2;
#X floatatom 1027 466 5 0 0 0 - azimuth -;
#X floatatom 1116 465 5 0 0 0 - elevation -;
#X obj 939 467 adc~ 1;
#X obj 939 503 vas_binaural~ 1024 fr_pos0.txt;
#X obj 1155 502 vas_reverb~ 4096 fr_pos0_tail.txt;
#X obj 1071 717 dac~ 1 2;
#X floatatom 1027 617 5 0 0 0 - azimuth -;
#X floatatom 1116 616 5 0 0 0 - elevation -;
#X obj 939 618 adc~ 1;
#X obj 939 654 vas_binaural~ 1024 fr_pos0.txt;
#X obj 1155 653 vas_reverb~ 4096 fr_pos0_tail.txt;
#X obj 1087 860 dac~ 1 2;
#X floatatom 1043 760 5 0 0 0 - azimuth -;
#X floatatom 1132 759 5 0 0 0 - elevation -;
#X obj 955 761 adc~ 1;
#X obj 955 797 vas_binaural~ 1024 fr_pos0.txt;
#X obj 1171 796 vas_reverb~ 4096 fr_pos0_tail.txt;
#X obj 1072 1023 dac~ 1 2;
#X floatatom 1028 923 5 0 0 0 - azimuth -;
#X floatatom 1117 922 5 0 0 0 - elevation -;
#X obj 940 924 adc~ 1;
#X obj 940 960 vas_binaural~ 1024 fr_pos0.txt;
#X obj 1156 959 vas_reverb~ 4096 fr_pos0_tail.txt;
#X obj 1088 1166 dac~ 1 2;
#X floatatom 1044 1066 5 0 0 0 - azimuth -;
#X floatatom 1133 1065 5 0 0 0 - elevation -;
#X obj 956 1067 adc~ 1;
#X obj 956 1103 vas_binaural~ 1024 fr_pos0.txt;
#X obj 1172 1102 vas_reverb~ 4096 fr_pos0_tail.txt;
#X connect 1 0 6 1;
#X connect 2 0 6 2;
#X connect 3 0 6 0;
#X connect 3 0 7 0;
#X connect 5 0 4 0;
#X connect 6 0 0 0;
#X connect 6 1 0 1;
#X connect 7 0 0 0;
#X connect 7 1 0 1;
#X connect 9 0 12 1;
#X connect 10 0 12 2;
#X connect 11 0 12 0;
#X connect 11 0 13 0;
#X connect 12 0 8 0;
#X connect 12 1 8 1;
#X connect 13 0 8 0;
#X connect 13 1 8 1;
#X connect 15 0 18 1;
#X connect 16 0 18 2;
#X connect 17 0 18 0;
#X connect 17 0 19 0;
#X connect 18 0 14 0;
#X connect 18 1 14 1;
#X connect 19 0 14 0;
#X connect 19 1 14 1;
#X connect 21 0 24 1;
#X connect 22 0 24 2;
#X connect 23 0 24 0;
#X connect 23 0 25 0;
#X connect 24 0 20 0;
#X connect 24 1 20 1;
#X connect 25 0 20 0;
#X connect 25 1 20 1;
#X connect 27 0 30 1;
#X connect 28 0 30 2;
#X connect 29 0 30 0;
#X connect 29 0 31 0;
#X connect 30 0 26 0;
#X connect 30 1 26 1;
#X connect 31 0 26 0;
#X connect 31 1 26 1;
#X connect 33 0 36 1;
#X connect 34 0 36 2;
#X connect 35 0 36 0;
#X connect 35 0 37 0;
#X connect 36 0 32 0;
#X connect 36 1 32 1;
#X connect 37 0 32 0;
#X connect 37 1 32 1;
#X connect 39 0 42 1;
#X connect 40 0 42 2;
#X connect 41 0 42 0;
#X connect 41 0 43 0;
#X connect 42 0 38 0;
#X connect 42 1 38 1;
#X connect 43 0 38 0;
#X connect 43 1 38 1;
#X connect 45 0 48 1;
#X connect 46 0 48 2;
#X connect 47 0 48 0;
#X connect 47 0 49 0;
#X connect 48 0 44 0;
#X connect 48 1 44 1;
#X connect 49 0 44 0;
#X connect 49 1 44 1;
#X connect 51 0 54 1;
#X connect 52 0 54 2;
#X connect 53 0 54 0;
#X connect 53 0 55 0;
#X connect 54 0 50 0;
#X connect 54 1 50 1;
#X connect 55 0 50 0;
#X connect 55 1 50 1;
#X connect 57 0 60 1;
#X connect 58 0 60 2;
#X connect 59 0 60 0;
#X connect 59 0 61 0;
#X connect 60 0 56 0;
#X connect 60 1 56 1;
#X connect 61 0 56 0;
#X connect 61 1 56 1;
#X connect 63 0 66 1;
#X connect 64 0 66 2;
#X connect 65 0 66 0;
#X connect 65 0 67 0;
#X connect 66 0 62 0;
#X connect 66 1 62 1;
#X connect 67 0 62 0;
#X connect 67 1 62 1;
#X connect 69 0 72 1;
#X connect 70 0 72 2;
#X connect 71 0 72 0;
#X connect 71 0 73 0;
#X connect 72 0 68 0;
#X connect 72 1 68 1;
#X connect 73 0 68 0;
#X connect 73 1 68 1;
#X connect 75 0 78 1;
#X connect 76 0 78 2;
#X connect 77 0 78 0;
#X connect 77 0 79 0;
#X connect 78 0 74 0;
#X connect 78 1 74 1;
#X connect 79 0 74 0;
#X connect 79 1 74 1;
#X connect 81 0 84 1;
#X connect 82 0 84 2;
#X connect 83 0 84 0;
#X connect 83 0 85 0;
#X connect 84 0 80 0;
#X connect 84 1 80 1;
#X connect 85 0 80 0;
#X connect 85 1 80 1;
#X connect 87 0 90 1;
#X connect 88 0 90 2;
#X connect 89 0 90 0;
#X connect 89 0 91 0;
#X connect 90 0 86 0;
#X connect 90 1 86 1;
#X connect 91 0 86 0;
#X connect 91 1 86 1;
#X connect 93 0 96 1;
#X connect 94 0 96 2;
#X connect 95 0 96 0;
#X connect 95 0 97 0;
#X connect 96 0 92 0;
#X connect 96 1 92 1;
#X connect 97 0 92 0;
#X connect 97 1 92 1;
#X connect 99 0 102 1;
#X connect 100 0 102 2;
#X connect 101 0 102 0;
#X connect 101 0 103 0;
#X connect 102 0 98 0;
#X connect 102 1 98 1;
#X connect 103 0 98 0;
#X connect 103 1 98 1;
#X connect 105 0 108 1;
#X connect 106 0 108 2;
#X connect 107 0 108 0;
#X connect 107 0 109 0;
#X connect 108 0 104 0;
#X connect 108 1 104 1;
#X connect 109 0 104 0;
#X connect 109 1 104 1;
#X connect 111 0 114 1;
#X connect 112 0 114 2;
#X connect 113 0 114 0;
#X connect 113 0 115 0;
#X connect 114 0 110 0;
#X connect 114 1 110 1;
#X connect 115 0 110 0;
#X connect 115 1 110 1;
#X connect 117 0 120 1;
#X connect 118 0 120 2;
#X connect 119 0 120 0;
#X connect 119 0 121 0;
#X connect 120 0 116 0;
#X connect 120 1 116 1;
#X connect 121 0 116 0;
#X connect 121 1 116 1;
#X connect 123 0 126 1;
#X connect 124 0 126 2;
#X connect 125 0 126 0;
#X connect 125 0 127 0;
#X connect 126 0 122 0;
#X connect 126 1 122 1;
#X connect 127 0 122 0;
#X connect 127 1 122 1;
#X connect 129 0 132 1;
#X connect 130 0 132 2;
#X connect 131 0 132 0;
#X connect 131 0 133 0;
#X connect 132 0 128 0;
#X connect 132 1 128 1;
#X connect 133 0 128 0;
#X connect 133 1 128 1;
#X connect 135 0 138 1;
#X connect 136 0 138 2;
#X connect 137 0 138 0;
#X connect 137 0 139 0;
#X connect 138 0 134 0;
#X connect 138 1 134 1;
#X connect 139 0 134 0;
#X connect 139 1 134 1;
#X connect 141 0 144 1;
#X connect 142 0 144 2;
#X connect 143 0 144 0;
#X connect 143 0 145 0;
#X connect 144 0 140 0;
#X connect 144 1 140 1;
#X connect 145 0 140 0;
#X connect 145 1 140 1;
