#N canvas 426 227 1073 562 10;
#X obj 28 160 readsf~;
#X msg 75 135 1;
#X obj 24 40 bng 15 250 50 0 empty empty empty 17 7 0 10 -262144 -1
-1;
#X obj 74 67 t b b;
#X obj 592 99 vsl 40 110 0 200 0 0 empty empty empty 0 -9 0 10 -261682
-1 -1 2398 1;
#X obj 592 248 send volume;
#X obj 592 224 / 127;
#X floatatom 671 248 5 0 0 0 - - -;
#X obj 592 54 loadbang;
#X obj 24 17 loadbang;
#X msg 592 76 44;
#X msg 27 112 open cicerospeech.wav;
#X msg 87 17 \; pd dsp 0;
#N canvas 0 23 450 300 (subpatch) 0;
#X array array1 42390 float 0;
#X coords 0 0.05 42389 -0.05 200 80 1 0 0;
#X restore 280 398 graph;
#N canvas 0 23 450 300 (subpatch) 0;
#X array array2 42390 float 0;
#X coords 0 0.05 42389 -0.05 200 80 1 0 0;
#X restore 486 398 graph;
#X obj 178 445 *~ 0.5;
#X obj 85 446 *~ 0.5;
#X obj 118 402 receive volume;
#X obj 85 480 dac~ 1 2;
#X obj 15 420 vu 8 80 empty empty -1 -8 0 10 -66577 -1 1 0;
#X obj 15 382 env~ 128;
#X obj 14 400 - 100;
#X text 93 315 1st inlet is the signal and message input.;
#X msg 108 135 0;
#X text 200 352 1st argument is partition size. 2nd argument IR (set)
to load.;
#X msg 159 290 index \$1;
#X floatatom 159 258 5 0 0 0 - - -;
#X obj 720 227 soundfiler;
#X floatatom 720 249 0 0 0 0 - - -;
#X obj 84 352 vas_dynconv~ 1024;
#N canvas 0 23 450 300 (subpatch) 0;
#X array array3 42390 float 0;
#X coords 0 0.05 42389 -0.05 200 80 1 0 0;
#X restore 692 398 graph;
#X msg 706 140 read -resize FAUX_IRs/Faux_0_0_0.wav array1 \;;
#X msg 720 167 read -resize FAUX_IRs/Faux_0_5_0.wav array2 \;;
#X msg 729 196 read -resize FAUX_IRs/Faux_0_10_0.wav array3 \;;
#X msg 200 83 configure 256 10000 20;
#X msg 161 200 setandinterpolate array1 0 array2 9 array3 19;
#X text 198 104 Arguments for manual configuration are: Vectorsize
\, maximum filter length and number of IRs.;
#X text 201 258 Choose index between 0 and number of IRs - 1;
#X obj 161 15 loadbang;
#X obj 161 39 t b b b;
#X obj 180 61 s loadarrays;
#X obj 736 110 r loadarrays;
#X text 176 171 setandinterpolate expects a list with array names and
corresponding IR indexes.;
#X connect 0 0 29 0;
#X connect 0 1 2 0;
#X connect 1 0 0 0;
#X connect 2 0 3 0;
#X connect 3 0 1 0;
#X connect 3 1 11 0;
#X connect 4 0 6 0;
#X connect 6 0 5 0;
#X connect 6 0 7 0;
#X connect 8 0 10 0;
#X connect 9 0 2 0;
#X connect 10 0 4 0;
#X connect 11 0 0 0;
#X connect 15 0 18 1;
#X connect 16 0 18 0;
#X connect 17 0 16 1;
#X connect 17 0 15 1;
#X connect 20 0 21 0;
#X connect 21 0 19 0;
#X connect 23 0 0 0;
#X connect 25 0 29 0;
#X connect 26 0 25 0;
#X connect 27 0 28 0;
#X connect 29 0 20 0;
#X connect 29 0 16 0;
#X connect 31 0 27 0;
#X connect 32 0 27 0;
#X connect 33 0 27 0;
#X connect 34 0 29 0;
#X connect 35 0 29 0;
#X connect 38 0 39 0;
#X connect 39 0 35 0;
#X connect 39 1 40 0;
#X connect 39 2 34 0;
#X connect 41 0 31 0;
#X connect 41 0 32 0;
#X connect 41 0 33 0;
