#N canvas 438 117 1060 495 10;
#X msg 185 201 pd~ stop;
#X obj 38 446 print x;
#X obj 135 449 dac~;
#X msg 65 360 azimuth \$1;
#X msg 156 359 elevation \$1;
#X floatatom 66 318 5 0 0 0 - - -;
#X floatatom 156 318 5 0 0 0 - - -;
#X obj 38 250 readsf~;
#X msg 85 225 1;
#X msg 38 202 open cicerospeech.wav;
#X obj 260 336 vu 8 80 empty empty -1 -8 0 10 -66577 -1 1 0;
#X obj 260 298 env~ 128;
#X obj 259 316 - 100;
#X obj 85 157 t b b b;
#X obj 41 44 bng 15 250 50 0 empty empty empty 17 7 0 10 -262144 -1
-1;
#X obj 85 123 r start;
#X msg 912 59 \; pd dsp 1;
#X obj 912 26 loadbang;
#X obj 41 74 send start;
#X obj 211 44 bng 15 250 50 0 empty empty empty 17 7 0 10 -262144 -1
-1;
#X obj 211 74 send stop;
#X obj 185 169 r stop;
#X msg 41 12 start subprocesses;
#X msg 211 11 stop subprocesses;
#X msg 320 61 \; pd dsp 0;
#X text 502 33 Have a look at vas_binaural_subprocess.pd;
#X obj 38 273 send~ source;
#X obj 39 389 receive~ source;
#X obj 38 423 pd~ -ninsig 1 -noutsig 2 -fifo 20;
#X msg 125 251 pd~ start -nogui vas_binaural_subprocess.pd;
#N canvas 583 246 403 326 24binauralvoices 0;
#X obj 48 243 print x;
#X obj 145 245 dac~;
#X obj 48 219 pd~ -ninsig 1 -noutsig 2 -fifo 20;
#X msg 75 156 azimuth \$1;
#X msg 166 155 elevation \$1;
#X floatatom 76 114 5 0 0 0 - - -;
#X floatatom 166 114 5 0 0 0 - - -;
#X obj 49 54 r start;
#X msg 113 54 pd~ stop;
#X obj 113 22 r stop;
#X obj 48 188 receive~ source;
#X msg 49 82 pd~ start -nogui vas_binaural_subprocess.pd;
#X connect 2 0 0 0;
#X connect 2 1 1 0;
#X connect 2 2 1 1;
#X connect 3 0 2 0;
#X connect 4 0 2 0;
#X connect 5 0 3 0;
#X connect 6 0 4 0;
#X connect 7 0 11 0;
#X connect 8 0 2 0;
#X connect 9 0 8 0;
#X connect 10 0 2 0;
#X connect 11 0 2 0;
#X restore 455 248 pd 24binauralvoices;
#N canvas 583 246 403 326 24binauralvoices 0;
#X obj 48 243 print x;
#X obj 145 245 dac~;
#X obj 48 219 pd~ -ninsig 1 -noutsig 2 -fifo 20;
#X msg 75 156 azimuth \$1;
#X msg 166 155 elevation \$1;
#X floatatom 76 114 5 0 0 0 - - -;
#X floatatom 166 114 5 0 0 0 - - -;
#X obj 49 54 r start;
#X msg 113 54 pd~ stop;
#X obj 113 22 r stop;
#X obj 48 188 receive~ source;
#X msg 49 82 pd~ start -nogui vas_binaural_subprocess.pd;
#X connect 2 0 0 0;
#X connect 2 1 1 0;
#X connect 2 2 1 1;
#X connect 3 0 2 0;
#X connect 4 0 2 0;
#X connect 5 0 3 0;
#X connect 6 0 4 0;
#X connect 7 0 11 0;
#X connect 8 0 2 0;
#X connect 9 0 8 0;
#X connect 10 0 2 0;
#X connect 11 0 2 0;
#X restore 585 247 pd 24binauralvoices;
#N canvas 583 246 403 326 24binauralvoices 0;
#X obj 48 243 print x;
#X obj 145 245 dac~;
#X obj 48 219 pd~ -ninsig 1 -noutsig 2 -fifo 20;
#X msg 75 156 azimuth \$1;
#X msg 166 155 elevation \$1;
#X floatatom 76 114 5 0 0 0 - - -;
#X floatatom 166 114 5 0 0 0 - - -;
#X obj 49 54 r start;
#X msg 113 54 pd~ stop;
#X obj 113 22 r stop;
#X obj 48 188 receive~ source;
#X msg 49 82 pd~ start -nogui vas_binaural_subprocess.pd;
#X connect 2 0 0 0;
#X connect 2 1 1 0;
#X connect 2 2 1 1;
#X connect 3 0 2 0;
#X connect 4 0 2 0;
#X connect 5 0 3 0;
#X connect 6 0 4 0;
#X connect 7 0 11 0;
#X connect 8 0 2 0;
#X connect 9 0 8 0;
#X connect 10 0 2 0;
#X connect 11 0 2 0;
#X restore 714 246 pd 24binauralvoices;
#N canvas 583 246 403 326 24binauralvoices 0;
#X obj 48 243 print x;
#X obj 145 245 dac~;
#X obj 48 219 pd~ -ninsig 1 -noutsig 2 -fifo 20;
#X msg 75 156 azimuth \$1;
#X msg 166 155 elevation \$1;
#X floatatom 76 114 5 0 0 0 - - -;
#X floatatom 166 114 5 0 0 0 - - -;
#X obj 49 54 r start;
#X msg 113 54 pd~ stop;
#X obj 113 22 r stop;
#X obj 48 188 receive~ source;
#X msg 49 82 pd~ start -nogui vas_binaural_subprocess.pd;
#X connect 2 0 0 0;
#X connect 2 1 1 0;
#X connect 2 2 1 1;
#X connect 3 0 2 0;
#X connect 4 0 2 0;
#X connect 5 0 3 0;
#X connect 6 0 4 0;
#X connect 7 0 11 0;
#X connect 8 0 2 0;
#X connect 9 0 8 0;
#X connect 10 0 2 0;
#X connect 11 0 2 0;
#X restore 847 245 pd 24binauralvoices;
#N canvas 583 246 403 326 24binauralvoices 0;
#X obj 48 243 print x;
#X obj 145 245 dac~;
#X obj 48 219 pd~ -ninsig 1 -noutsig 2 -fifo 20;
#X msg 75 156 azimuth \$1;
#X msg 166 155 elevation \$1;
#X floatatom 76 114 5 0 0 0 - - -;
#X floatatom 166 114 5 0 0 0 - - -;
#X obj 49 54 r start;
#X msg 113 54 pd~ stop;
#X obj 113 22 r stop;
#X obj 48 188 receive~ source;
#X msg 49 82 pd~ start -nogui vas_binaural_subprocess.pd;
#X connect 2 0 0 0;
#X connect 2 1 1 0;
#X connect 2 2 1 1;
#X connect 3 0 2 0;
#X connect 4 0 2 0;
#X connect 5 0 3 0;
#X connect 6 0 4 0;
#X connect 7 0 11 0;
#X connect 8 0 2 0;
#X connect 9 0 8 0;
#X connect 10 0 2 0;
#X connect 11 0 2 0;
#X restore 457 286 pd 24binauralvoices;
#N canvas 583 246 403 326 24binauralvoices 0;
#X obj 48 243 print x;
#X obj 145 245 dac~;
#X obj 48 219 pd~ -ninsig 1 -noutsig 2 -fifo 20;
#X msg 75 156 azimuth \$1;
#X msg 166 155 elevation \$1;
#X floatatom 76 114 5 0 0 0 - - -;
#X floatatom 166 114 5 0 0 0 - - -;
#X obj 49 54 r start;
#X msg 113 54 pd~ stop;
#X obj 113 22 r stop;
#X obj 48 188 receive~ source;
#X msg 49 82 pd~ start -nogui vas_binaural_subprocess.pd;
#X connect 2 0 0 0;
#X connect 2 1 1 0;
#X connect 2 2 1 1;
#X connect 3 0 2 0;
#X connect 4 0 2 0;
#X connect 5 0 3 0;
#X connect 6 0 4 0;
#X connect 7 0 11 0;
#X connect 8 0 2 0;
#X connect 9 0 8 0;
#X connect 10 0 2 0;
#X connect 11 0 2 0;
#X restore 587 285 pd 24binauralvoices;
#N canvas 583 246 403 326 24binauralvoices 0;
#X obj 48 243 print x;
#X obj 145 245 dac~;
#X obj 48 219 pd~ -ninsig 1 -noutsig 2 -fifo 20;
#X msg 75 156 azimuth \$1;
#X msg 166 155 elevation \$1;
#X floatatom 76 114 5 0 0 0 - - -;
#X floatatom 166 114 5 0 0 0 - - -;
#X obj 49 54 r start;
#X msg 113 54 pd~ stop;
#X obj 113 22 r stop;
#X obj 48 188 receive~ source;
#X msg 49 82 pd~ start -nogui vas_binaural_subprocess.pd;
#X connect 2 0 0 0;
#X connect 2 1 1 0;
#X connect 2 2 1 1;
#X connect 3 0 2 0;
#X connect 4 0 2 0;
#X connect 5 0 3 0;
#X connect 6 0 4 0;
#X connect 7 0 11 0;
#X connect 8 0 2 0;
#X connect 9 0 8 0;
#X connect 10 0 2 0;
#X connect 11 0 2 0;
#X restore 716 284 pd 24binauralvoices;
#N canvas 583 246 403 326 24binauralvoices 0;
#X obj 48 243 print x;
#X obj 145 245 dac~;
#X obj 48 219 pd~ -ninsig 1 -noutsig 2 -fifo 20;
#X msg 75 156 azimuth \$1;
#X msg 166 155 elevation \$1;
#X floatatom 76 114 5 0 0 0 - - -;
#X floatatom 166 114 5 0 0 0 - - -;
#X obj 49 54 r start;
#X msg 113 54 pd~ stop;
#X obj 113 22 r stop;
#X obj 48 188 receive~ source;
#X msg 49 82 pd~ start -nogui vas_binaural_subprocess.pd;
#X connect 2 0 0 0;
#X connect 2 1 1 0;
#X connect 2 2 1 1;
#X connect 3 0 2 0;
#X connect 4 0 2 0;
#X connect 5 0 3 0;
#X connect 6 0 4 0;
#X connect 7 0 11 0;
#X connect 8 0 2 0;
#X connect 9 0 8 0;
#X connect 10 0 2 0;
#X connect 11 0 2 0;
#X restore 849 283 pd 24binauralvoices;
#X text 534 335 214 voices \, each rendered with a dynamic brir and
a static late reverb of ~3 seconds;
#X connect 0 0 28 0;
#X connect 3 0 28 0;
#X connect 4 0 28 0;
#X connect 5 0 3 0;
#X connect 6 0 4 0;
#X connect 7 0 26 0;
#X connect 8 0 7 0;
#X connect 9 0 7 0;
#X connect 11 0 12 0;
#X connect 12 0 10 0;
#X connect 13 0 8 0;
#X connect 13 1 9 0;
#X connect 13 2 29 0;
#X connect 14 0 18 0;
#X connect 15 0 13 0;
#X connect 17 0 16 0;
#X connect 19 0 20 0;
#X connect 21 0 0 0;
#X connect 22 0 14 0;
#X connect 23 0 19 0;
#X connect 27 0 28 0;
#X connect 28 0 1 0;
#X connect 28 1 2 0;
#X connect 28 1 11 0;
#X connect 28 2 2 1;
#X connect 29 0 28 0;
