#N canvas 524 182 995 722 10;
#X obj 195 99 oscparse;
#X obj 195 76 netreceive -u -b;
#X msg 195 53 listen 51080;
#X obj 28 172 readsf~;
#X msg 75 147 1;
#X obj 24 52 bng 15 250 50 0 empty empty empty 17 7 0 10 -262144 -1
-1;
#X obj 74 79 t b b;
#X obj 195 122 route list;
#X obj 195 144 route azimuth elevation;
#X obj 195 30 loadbang;
#X obj 706 145 vsl 40 110 0 200 0 0 empty empty empty 0 -9 0 10 -261682
-1 -1 2398 1;
#X obj 706 267 / 127;
#X floatatom 799 292 5 0 0 0 - - -;
#X obj 706 100 loadbang;
#X obj 24 29 loadbang;
#X msg 706 122 44;
#X msg 776 99 \; pd dsp 0;
#X obj 166 617 *~ 0.5;
#X obj 91 617 *~ 0.5;
#X obj 91 651 dac~ 1 2;
#X floatatom 194 459 5 0 0 0 - - -;
#X floatatom 298 455 5 0 0 0 - - -;
#X obj 21 591 vu 8 80 empty empty -1 -8 0 10 -66577 -1 1 0;
#X obj 21 553 env~ 128;
#X obj 20 571 - 100;
#X obj 195 167 s azi;
#X obj 262 166 s ele;
#X obj 194 432 r azi;
#X obj 298 432 r ele;
#X text 96 485 1st inlet is the signal and message input. 2nd inlet
is for azimuth. 3rd inlet is for elevation.;
#X text 309 19 Receive elevation and azimuth from a headtracker via
osc. Instructions for building the vas headtracker are a available
at the vas git repository: github.com/funkerresch/vas_library;
#X text 488 479 Any further vas_binaural~ objects with the same partition
size and IR set will share the filter with the first object \, that
loaded the IR set. It does not allocate extra memory for the Impulse
Responses. As long as any object references a filter set \, the object
that loaded the original set will not accept a new IR set.;
#X obj 28 195 s~ source;
#X obj 90 408 r~ source;
#X obj 706 291 send vol_main;
#X obj 124 573 receive vol_main;
#X obj 763 140 r mute_main;
#X text 276 223 1st argument is the IR Set Name 2nd argument is the
partition size for the fft (default is 256). 3rd argument is the offset
in samples for the IR set. 4rth argument the end in samples.;
#X msg 43 263 read HMB1c_S00_R04.txt 512 0;
#X msg 28 226 read fr_pos0_tail.txt 2048 3000 80000;
#X msg 280 299 read FABIAN_HRIR_measured_HATO_0.sofa 256 0 0;
#X msg 27 124 open cicerospeech.wav;
#X msg 66 301 read MUA_S00_R00.txt 1024 0;
#X obj 91 526 vas_binauralspace~ 1024 fabian_dir256.txt;
#X msg 407 630 delaytime \$1;
#X floatatom 410 567 5 0 0 0 - - -;
#X connect 0 0 7 0;
#X connect 1 0 0 0;
#X connect 2 0 1 0;
#X connect 3 0 32 0;
#X connect 3 1 5 0;
#X connect 4 0 3 0;
#X connect 5 0 6 0;
#X connect 6 0 4 0;
#X connect 6 1 41 0;
#X connect 7 0 8 0;
#X connect 8 0 25 0;
#X connect 8 1 26 0;
#X connect 9 0 2 0;
#X connect 10 0 11 0;
#X connect 11 0 12 0;
#X connect 11 0 34 0;
#X connect 13 0 15 0;
#X connect 14 0 5 0;
#X connect 15 0 10 0;
#X connect 17 0 19 1;
#X connect 18 0 19 0;
#X connect 20 0 43 1;
#X connect 21 0 43 2;
#X connect 23 0 24 0;
#X connect 24 0 22 0;
#X connect 27 0 20 0;
#X connect 28 0 21 0;
#X connect 33 0 43 0;
#X connect 35 0 18 1;
#X connect 35 0 17 1;
#X connect 36 0 10 0;
#X connect 38 0 43 0;
#X connect 39 0 43 0;
#X connect 40 0 43 0;
#X connect 41 0 3 0;
#X connect 42 0 43 0;
#X connect 43 0 18 0;
#X connect 43 0 23 0;
#X connect 43 1 17 0;
#X connect 44 0 43 0;
#X connect 45 0 44 0;
