#N canvas 476 225 1032 660 10;
#X obj 163 477 dac~;
#X obj 107 182 readsf~;
#X msg 154 157 1;
#X obj 103 62 bng 15 250 50 0 empty empty empty 17 7 0 10 -262144 -1
-1;
#X obj 153 89 t b b;
#X msg 181 37 \; pd dsp 0;
#N canvas 0 23 450 300 (subpatch) 0;
#X array arrayL 110250 float 0;
#X coords 0 0.05 110249 -0.05 200 80 1 0 0;
#X restore 330 426 graph;
#X obj 278 100 soundfiler;
#X floatatom 278 132 0 0 0 0 - - -;
#N canvas 0 23 450 300 (subpatch) 0;
#X array arrayR 110250 float 0;
#X coords 0 0.05 110249 -0.05 200 80 1 0 0;
#X restore 536 426 graph;
#X obj 81 453 vu 8 80 empty empty -1 -8 0 10 -66577 -1 1 0;
#X obj 81 415 env~ 128;
#X obj 80 433 - 100;
#X text 172 337 1st inlet is the signal and message input.;
#X msg 187 157 0;
#X msg 94 254 read fr_pos0_tail.txt 2048;
#X text 279 374 1st argument is partition size. 2nd argument IR (set)
to load.;
#X text 93 234 read loads IRs from a vas text file.;
#X text 272 192 Ir (sets) can be loaded from pd arrays with the set
function.;
#X text 335 45 click here to load array;
#X obj 574 70 soundfiler;
#X floatatom 574 102 0 0 0 0 - - -;
#X msg 278 161 set arrayL arrayR 512 0 \$1;
#X msg 696 94 read -resize unitpulse.wav arrayL arrayR \;;
#X obj 163 374 vas_partconv~ 1024;
#X obj 269 446 *~ 0.5;
#X obj 163 449 *~ 0.5;
#X obj 659 220 vsl 40 110 0 200 0 0 empty empty empty 0 -9 0 10 -261682
-1 -1 2398 1;
#X obj 659 345 / 127;
#X floatatom 738 369 5 0 0 0 - - -;
#X obj 659 175 loadbang;
#X msg 659 197 44;
#X obj 659 369 send volume1;
#X obj 196 405 receive volume1;
#X msg 669 65 read -resize Church.wav arrayL arrayR \;;
#X msg 574 130 set arrayL arrayR 1024 0;
#X msg 574 38 read -resize Room7_KMB_v2_44.1kHz_16bit.wav arrayL arrayR
\;;
#X msg 106 134 open cicerospeech.wav;
#X msg 278 68 read -resize MediumStage.aif arrayL arrayR \;;
#X connect 1 0 24 0;
#X connect 1 1 3 0;
#X connect 2 0 1 0;
#X connect 3 0 4 0;
#X connect 4 0 2 0;
#X connect 4 1 37 0;
#X connect 7 0 8 0;
#X connect 8 0 22 0;
#X connect 11 0 12 0;
#X connect 12 0 10 0;
#X connect 14 0 1 0;
#X connect 15 0 24 0;
#X connect 20 0 21 0;
#X connect 21 0 35 0;
#X connect 22 0 24 0;
#X connect 23 0 20 0;
#X connect 24 0 11 0;
#X connect 24 0 26 0;
#X connect 24 1 25 0;
#X connect 25 0 0 1;
#X connect 26 0 0 0;
#X connect 27 0 28 0;
#X connect 28 0 29 0;
#X connect 28 0 32 0;
#X connect 30 0 31 0;
#X connect 31 0 27 0;
#X connect 33 0 26 1;
#X connect 33 0 25 1;
#X connect 34 0 20 0;
#X connect 35 0 24 0;
#X connect 36 0 20 0;
#X connect 37 0 1 0;
#X connect 38 0 7 0;
