#N canvas 272 188 990 705 10;
#X obj 195 99 oscparse;
#X obj 195 76 netreceive -u -b;
#X msg 195 53 listen 51080;
#X obj 28 172 readsf~;
#X msg 75 147 1;
#X obj 24 52 bng 15 250 50 0 empty empty empty 17 7 0 10 -262144 -1
-1;
#X obj 74 79 t b b;
#X obj 195 122 route list;
#X obj 195 144 route azimuth elevation;
#X obj 195 30 loadbang;
#X obj 811 123 vsl 40 110 0 200 0 0 empty empty empty 0 -9 0 10 -261682
-1 -1 2398 1;
#X obj 811 245 / 127;
#X floatatom 904 270 5 0 0 0 - - -;
#X obj 811 78 loadbang;
#X obj 24 29 loadbang;
#X msg 811 100 44;
#X msg 881 77 \; pd dsp 0;
#N canvas 0 23 450 300 (subpatch) 0;
#X array arrayL 145156 float 0;
#X coords 0 1 145155 -1 200 80 1 0 0;
#X restore 356 393 graph;
#X obj 694 66 soundfiler;
#X floatatom 694 88 0 0 0 0 - - -;
#X text 751 9 click here to load table;
#N canvas 0 23 450 300 (subpatch) 0;
#X array arrayR 145156 float 0;
#X coords 0 1 145155 -1 200 80 1 0 0;
#X restore 571 393 graph;
#X obj 166 617 *~ 0.5;
#X obj 91 617 *~ 0.5;
#X obj 91 651 dac~ 1 2;
#X floatatom 194 454 5 0 0 0 - - -;
#X floatatom 298 455 5 0 0 0 - - -;
#X msg 59 293 read fabian_dir256.txt 1024 0;
#X msg 694 32 read -resize MediumStage.aif arrayL arrayR \;;
#X obj 21 591 vu 8 80 empty empty -1 -8 0 10 -66577 -1 1 0;
#X obj 21 553 env~ 128;
#X obj 20 571 - 100;
#X obj 195 167 s azi;
#X obj 262 166 s ele;
#X obj 194 432 r azi;
#X obj 298 432 r ele;
#X text 96 485 1st inlet is the signal and message input. 2nd inlet
is for azimuth. 3rd inlet is for elevation.;
#X text 309 19 Receive elevation and azimuth from a headtracker via
osc. Instructions for building the vas headtracker are a available
at the vas git repository: github.com/funkerresch/vas_library;
#X text 528 570 Any further vas_binaural~ objects with the same partition
size and IR set will share the filter with the first object \, that
loaded the IR set. It does not allocate extra memory for the Impulse
Responses. As long as any object references a filter set \, the object
that loaded the original set will not accept a new IR set.;
#N canvas 446 318 1021 631 vas_fileformat 0;
#X obj 165 247 vas_binaural~;
#X msg 164 39 read multipulse.txt 256 0;
#X obj 240 370 *~ 0.5;
#X obj 165 370 *~ 0.5;
#X obj 165 404 dac~ 1 2;
#X obj 96 375 vu 8 80 empty empty -1 -8 0 10 -66577 -1 1 0;
#X obj 95 332 env~ 128;
#X obj 95 353 - 100;
#X obj 198 326 receive vol_sub;
#X obj 22 101 vsl 40 110 0 200 0 0 empty empty empty 0 -9 0 10 -261682
-1 -1 2398 1;
#X obj 22 223 / 127;
#X floatatom 115 248 5 0 0 0 - - -;
#X obj 22 56 loadbang;
#X msg 22 78 44;
#X obj 22 247 send vol_sub;
#X obj 184 145 s mute_main;
#X obj 184 101 t b;
#X msg 184 123 0;
#X obj 130 72 r~ source;
#X floatatom 202 215 5 0 0 0 - - -;
#X floatatom 240 215 5 0 0 0 - - -;
#X msg 130 13 read multiazimuthpulse.txt 256 0;
#X text 277 73 Have a look at the multiazimuthpulse.txt and the multipulse.txt
files. The former is a Unit Pulse for 6 different angles in the azimuth
plane. The latter one is a unit pulse with 2 angels in the elevation
and 4 angles in the azimuth plane. This results in 8 IRs altogether
for each channel.;
#X text 358 223 directionformat - The IR type \, either single \, azimuth
or multi. Single means that the file contains a single IR for each
channel \, azimuth that the file contains multiple IRs for several
azimuth angels and multi means \, that the file contains multiple IRs
for different elevation and azimuth angles.;
#X text 359 305 audioformat - Currently only stereo files are supported.
;
#X text 358 333 lineformat - Either ir or value. ir means \, that each
line contains a whole ir \, value means \, that each line contains
a single value (value will be deprecated soon).;
#X text 358 381 elevationstride - Values for elevation angles range
from 0 to 179 \, a stride of 90 means \, that the file contains two
different elevation angles \, 0 and 90;
#X text 358 429 azimuthstride - Values for azimuth range from 0 to
359 \, a stride of 3 means \, that the file contains 120 azimuth angles
for each elevation angle.;
#X text 360 479 Minimum stride is currently set to two (if anyone needs
a grid resolution of 1 degree let me know \, I reduced it because memory
allocation in Unity is terrebly slow..);
#X text 356 165 The metadata contains the following parameter:;
#X text 357 187 length - The length of each IR \, must greater than
16 and a power of 2;
#X connect 0 0 3 0;
#X connect 0 0 6 0;
#X connect 0 1 2 0;
#X connect 1 0 0 0;
#X connect 1 0 16 0;
#X connect 2 0 4 1;
#X connect 3 0 4 0;
#X connect 6 0 7 0;
#X connect 7 0 5 0;
#X connect 8 0 3 1;
#X connect 8 0 2 1;
#X connect 9 0 10 0;
#X connect 10 0 11 0;
#X connect 10 0 14 0;
#X connect 12 0 13 0;
#X connect 13 0 9 0;
#X connect 16 0 17 0;
#X connect 17 0 15 0;
#X connect 18 0 0 0;
#X connect 19 0 0 1;
#X connect 20 0 0 2;
#X connect 21 0 0 0;
#X restore 415 180 pd vas_fileformat;
#X obj 28 195 s~ source;
#X obj 90 408 r~ source;
#X obj 811 269 send vol_main;
#X obj 124 573 receive vol_main;
#X obj 868 118 r mute_main;
#X text 414 139 Sofa support will come back soon \, for now use the
matlab skript to convert sofa to the vas text format.;
#X text 239 242 1st argument is the IR Set Name 2nd argument is the
partition size for the fft (default is 256). 3rd argument is the offset
in samples for the IR set. 4rth argument the end in samples.;
#X text 352 323 Ir (sets) can also be loaded from pd arrays with the
set function.;
#X msg 100 366 testIr;
#X obj 189 355 osc~ 440;
#X obj 206 399 *~ 0.2;
#X obj 254 343 osc~ 880;
#X msg 43 263 read HMB1c_S00_R04.txt 512 0;
#X msg 28 226 read fr_pos0_tail.txt 2048 3000 80000;
#X msg 354 357 set arrayL arrayR 512 1024 44100;
#X obj 91 526 vas_binaural~ 1024 fabian_dir256.txt;
#X msg 270 299 read FABIAN_HRIR_measured_HATO_0.sofa 256 0 0;
#X msg 611 294 read TU-Berlin_QU_KEMAR_anechoic_radius_0.5m.sofa 256
0 0;
#X obj 821 403 oscparse;
#X obj 821 380 netreceive -u -b;
#X msg 821 357 listen 44444;
#X obj 822 523 print;
#X obj 821 429 route list;
#X obj 821 460 route linuxtrack;
#X obj 823 492 route pose;
#X msg 27 124 open cicerospeech.wav;
#X connect 0 0 7 0;
#X connect 1 0 0 0;
#X connect 2 0 1 0;
#X connect 3 0 40 0;
#X connect 3 1 5 0;
#X connect 4 0 3 0;
#X connect 5 0 6 0;
#X connect 6 0 4 0;
#X connect 6 1 65 0;
#X connect 7 0 8 0;
#X connect 8 0 32 0;
#X connect 8 1 33 0;
#X connect 9 0 2 0;
#X connect 10 0 11 0;
#X connect 11 0 12 0;
#X connect 11 0 42 0;
#X connect 13 0 15 0;
#X connect 14 0 5 0;
#X connect 15 0 10 0;
#X connect 18 0 19 0;
#X connect 22 0 24 1;
#X connect 23 0 24 0;
#X connect 25 0 55 1;
#X connect 26 0 55 2;
#X connect 27 0 55 0;
#X connect 28 0 18 0;
#X connect 30 0 31 0;
#X connect 31 0 29 0;
#X connect 34 0 25 0;
#X connect 35 0 26 0;
#X connect 41 0 55 0;
#X connect 43 0 23 1;
#X connect 43 0 22 1;
#X connect 44 0 10 0;
#X connect 48 0 55 0;
#X connect 49 0 50 0;
#X connect 51 0 50 0;
#X connect 52 0 55 0;
#X connect 53 0 55 0;
#X connect 54 0 55 0;
#X connect 55 0 23 0;
#X connect 55 0 30 0;
#X connect 55 1 22 0;
#X connect 56 0 55 0;
#X connect 57 0 55 0;
#X connect 58 0 62 0;
#X connect 59 0 58 0;
#X connect 60 0 59 0;
#X connect 62 0 63 0;
#X connect 63 0 64 0;
#X connect 64 0 61 0;
#X connect 65 0 3 0;
